<?xml version="1.0"?>
<!DOCTYPE svg PUBLIC "-//W3C//DTD SVG 1.1//EN" "http://www.w3.org/Graphics/SVG/1.1/DTD/svg11.dtd">
<svg width="408.0mm" height="218.0mm" viewBox="0 0 408.0 218.0" xmlns="http://www.w3.org/2000/svg" version="1.1">
<g id="Body003" transform="translate(204.000000,85.448870) scale(1,-1)">
<path id="Body003_f0000"  d="M -200.0 76.44887032950912 A 5 5 0 0 0 -195 81.4489L -195.0 81.44887032950912 A 5 5 0 0 1 -200 76.4489L -200.0 76.44887032950913 Z " stroke="#191919" stroke-width="0.35 px" style="stroke-width:0.35;stroke-miterlimit:4;stroke-dasharray:none;stroke-linecap:square;fill:#cccccc;fill-opacity:0.88;fill-rule: evenodd"/>
<path id="Body003_f0001"  d="M -195.0 81.44887032950912 L -195.0 81.44887032950912 L 195.0 81.44887032950912 L 195.0 81.44887032950912 L -195.0 81.44887032950912 Z " stroke="#191919" stroke-width="0.35 px" style="stroke-width:0.35;stroke-miterlimit:4;stroke-dasharray:none;stroke-linecap:square;fill:#cccccc;fill-opacity:0.88;fill-rule: evenodd"/>
<path id="Body003_f0002"  d="M -200.0 -123.55112967049087 L -200.0 -123.55112967049087 L -200.0 76.44887032950913 L -200.0 76.44887032950913 L -200.0 -123.55112967049087 Z " stroke="#191919" stroke-width="0.35 px" style="stroke-width:0.35;stroke-miterlimit:4;stroke-dasharray:none;stroke-linecap:square;fill:#cccccc;fill-opacity:0.88;fill-rule: evenodd"/>
<circle cx="-185.0" cy="-113.55112967049087" r="1.7" stroke="#191919" stroke-width="0.35 px" style="stroke-width:0.35;stroke-miterlimit:4;stroke-dasharray:none;stroke-linecap:square;fill:#cccccc"/>
<circle cx="-185.0" cy="-113.55112967049087" r="1.7" stroke="#191919" stroke-width="0.35 px" style="stroke-width:0.35;stroke-miterlimit:4;stroke-dasharray:none;stroke-linecap:square;fill:#cccccc"/>
<path id="Body003_f0005"  d="M 194.99999999999997 81.44887032950912 A 5 5 0 0 0 200 76.4489L 200.0 76.44887032950912 A 5 5 0 0 1 195 81.4489L 195.0 81.44887032950912 Z " stroke="#191919" stroke-width="0.35 px" style="stroke-width:0.35;stroke-miterlimit:4;stroke-dasharray:none;stroke-linecap:square;fill:#cccccc;fill-opacity:0.88;fill-rule: evenodd"/>
<path id="Body003_f0006"  d="M -195.0 -128.55112967049087 A 5 5 0 0 0 -200 -123.551L -200.0 -123.55112967049087 A 5 5 0 0 1 -195 -128.551L -195.0 -128.55112967049087 Z " stroke="#191919" stroke-width="0.35 px" style="stroke-width:0.35;stroke-miterlimit:4;stroke-dasharray:none;stroke-linecap:square;fill:#cccccc;fill-opacity:0.88;fill-rule: evenodd"/>
<path id="Body003_f0007"  d="M 200.0 76.44887032950912 L 200.0 76.44887032950912 L 200.0 -123.55112967049088 L 200.0 -123.55112967049088 L 200.0 76.44887032950912 Z " stroke="#191919" stroke-width="0.35 px" style="stroke-width:0.35;stroke-miterlimit:4;stroke-dasharray:none;stroke-linecap:square;fill:#cccccc;fill-opacity:0.88;fill-rule: evenodd"/>
<path id="Body003_f0008"  d="M 195.0 -128.55112967049087 L 195.0 -128.55112967049087 L -195.0 -128.55112967049087 L -195.0 -128.55112967049087 L 195.0 -128.55112967049087 Z " stroke="#191919" stroke-width="0.35 px" style="stroke-width:0.35;stroke-miterlimit:4;stroke-dasharray:none;stroke-linecap:square;fill:#cccccc;fill-opacity:0.88;fill-rule: evenodd"/>
<path id="Body003_f0009"  d="M 200.0 -123.55112967049088 A 5 5 0 0 0 195 -128.551L 195.0 -128.55112967049087 A 5 5 0 0 1 200 -123.551L 200.0 -123.55112967049088 Z " stroke="#191919" stroke-width="0.35 px" style="stroke-width:0.35;stroke-miterlimit:4;stroke-dasharray:none;stroke-linecap:square;fill:#cccccc;fill-opacity:0.88;fill-rule: evenodd"/>
<circle cx="-185.0" cy="-113.55112967049087" r="1.7" stroke="#191919" stroke-width="0.35 px" style="stroke-width:0.35;stroke-miterlimit:4;stroke-dasharray:none;stroke-linecap:square;fill:#cccccc"/>
<circle cx="-65.0" cy="-38.94887032950912" r="12.75" stroke="#191919" stroke-width="0.35 px" style="stroke-width:0.35;stroke-miterlimit:4;stroke-dasharray:none;stroke-linecap:square;fill:#cccccc"/>
<circle cx="0.0" cy="-113.55112967049087" r="1.7" stroke="#191919" stroke-width="0.35 px" style="stroke-width:0.35;stroke-miterlimit:4;stroke-dasharray:none;stroke-linecap:square;fill:#cccccc"/>
<circle cx="185.0" cy="-113.55112967049087" r="1.7" stroke="#191919" stroke-width="0.35 px" style="stroke-width:0.35;stroke-miterlimit:4;stroke-dasharray:none;stroke-linecap:square;fill:#cccccc"/>
<circle cx="65.0" cy="-38.94887032950912" r="12.75" stroke="#191919" stroke-width="0.35 px" style="stroke-width:0.35;stroke-miterlimit:4;stroke-dasharray:none;stroke-linecap:square;fill:#cccccc"/>
<circle cx="-132.15999461960968" cy="15.027358106026998" r="12.75" stroke="#191919" stroke-width="0.35 px" style="stroke-width:0.35;stroke-miterlimit:4;stroke-dasharray:none;stroke-linecap:square;fill:#cccccc"/>
<circle cx="-104.78590208429225" cy="12.86887301970428" r="12.75" stroke="#191919" stroke-width="0.35 px" style="stroke-width:0.35;stroke-miterlimit:4;stroke-dasharray:none;stroke-linecap:square;fill:#cccccc"/>
<circle cx="-80.0" cy="1.0511296704908775" r="12.75" stroke="#191919" stroke-width="0.35 px" style="stroke-width:0.35;stroke-miterlimit:4;stroke-dasharray:none;stroke-linecap:square;fill:#cccccc"/>
<circle cx="-97.79778786652417" cy="38.94887032950912" r="12.75" stroke="#191919" stroke-width="0.35 px" style="stroke-width:0.35;stroke-miterlimit:4;stroke-dasharray:none;stroke-linecap:square;fill:#cccccc"/>
<circle cx="-185.0" cy="66.44887032950912" r="1.7" stroke="#191919" stroke-width="0.35 px" style="stroke-width:0.35;stroke-miterlimit:4;stroke-dasharray:none;stroke-linecap:square;fill:#cccccc"/>
<path id="Body003_f0020"  d="M -121.0 58.95000000000002 L -121.0 58.95000000000002 L -151.0 58.95000000000002 L -151.0 58.95000000000002 L -121.0 58.95000000000002 Z " stroke="#191919" stroke-width="0.35 px" style="stroke-width:0.35;stroke-miterlimit:4;stroke-dasharray:none;stroke-linecap:square;fill:#cccccc;fill-opacity:0.88;fill-rule: evenodd"/>
<path id="Body003_f0021"  d="M -121.0 41.95000000000002 L -121.0 41.95000000000002 L -121.0 58.95000000000002 L -121.0 58.95000000000002 L -121.0 41.95000000000002 Z " stroke="#191919" stroke-width="0.35 px" style="stroke-width:0.35;stroke-miterlimit:4;stroke-dasharray:none;stroke-linecap:square;fill:#cccccc;fill-opacity:0.88;fill-rule: evenodd"/>
<path id="Body003_f0022"  d="M -151.0 58.95000000000002 L -151.0 58.95000000000002 L -151.0 41.95000000000002 L -151.0 41.95000000000002 L -151.0 58.95000000000002 Z " stroke="#191919" stroke-width="0.35 px" style="stroke-width:0.35;stroke-miterlimit:4;stroke-dasharray:none;stroke-linecap:square;fill:#cccccc;fill-opacity:0.88;fill-rule: evenodd"/>
<path id="Body003_f0023"  d="M -151.0 41.95000000000002 L -151.0 41.95000000000002 L -121.0 41.95000000000002 L -121.0 41.95000000000002 L -151.0 41.95000000000002 Z " stroke="#191919" stroke-width="0.35 px" style="stroke-width:0.35;stroke-miterlimit:4;stroke-dasharray:none;stroke-linecap:square;fill:#cccccc;fill-opacity:0.88;fill-rule: evenodd"/>
<circle cx="-60.0" cy="66.44887032950912" r="1.7" stroke="#191919" stroke-width="0.35 px" style="stroke-width:0.35;stroke-miterlimit:4;stroke-dasharray:none;stroke-linecap:square;fill:#cccccc"/>
<circle cx="80.0" cy="-3.9488703295091225" r="12.75" stroke="#191919" stroke-width="0.35 px" style="stroke-width:0.35;stroke-miterlimit:4;stroke-dasharray:none;stroke-linecap:square;fill:#cccccc"/>
<circle cx="73.01188578223194" cy="22.131126980295722" r="12.75" stroke="#191919" stroke-width="0.35 px" style="stroke-width:0.35;stroke-miterlimit:4;stroke-dasharray:none;stroke-linecap:square;fill:#cccccc"/>
<circle cx="104.78590208429225" cy="7.868873019704277" r="12.75" stroke="#191919" stroke-width="0.35 px" style="stroke-width:0.35;stroke-miterlimit:4;stroke-dasharray:none;stroke-linecap:square;fill:#cccccc"/>
<circle cx="132.15999461960968" cy="10.027358106026995" r="12.75" stroke="#191919" stroke-width="0.35 px" style="stroke-width:0.35;stroke-miterlimit:4;stroke-dasharray:none;stroke-linecap:square;fill:#cccccc"/>
<circle cx="158.9656810819826" cy="2.7160536204405368" r="12.75" stroke="#191919" stroke-width="0.35 px" style="stroke-width:0.35;stroke-miterlimit:4;stroke-dasharray:none;stroke-linecap:square;fill:#cccccc"/>
<circle cx="60.0" cy="66.44887032950912" r="1.7" stroke="#191919" stroke-width="0.35 px" style="stroke-width:0.35;stroke-miterlimit:4;stroke-dasharray:none;stroke-linecap:square;fill:#cccccc"/>
<circle cx="97.79778786652417" cy="33.94887032950912" r="12.75" stroke="#191919" stroke-width="0.35 px" style="stroke-width:0.35;stroke-miterlimit:4;stroke-dasharray:none;stroke-linecap:square;fill:#cccccc"/>
<circle cx="125.17188040184163" cy="36.10735541583184" r="12.75" stroke="#191919" stroke-width="0.35 px" style="stroke-width:0.35;stroke-miterlimit:4;stroke-dasharray:none;stroke-linecap:square;fill:#cccccc"/>
<circle cx="151.97756686421457" cy="28.79605093024538" r="12.75" stroke="#191919" stroke-width="0.35 px" style="stroke-width:0.35;stroke-miterlimit:4;stroke-dasharray:none;stroke-linecap:square;fill:#cccccc"/>
<path id="Body003_f0034"  d="M 82.0 64.94887032950912 A 2.5 2.5 0 0 0 84.5 67.4489L 84.5 67.44887032950912 A 2.5 2.5 0 0 1 82 64.9489L 82.0 64.94887032950912 Z " stroke="#191919" stroke-width="0.35 px" style="stroke-width:0.35;stroke-miterlimit:4;stroke-dasharray:none;stroke-linecap:square;fill:#cccccc;fill-opacity:0.88;fill-rule: evenodd"/>
<path id="Body003_f0035"  d="M 160.49999999999994 67.44887032950912 L 160.49999999999994 67.44887032950912 L 84.5 67.44887032950912 L 84.5 67.44887032950912 L 160.49999999999994 67.44887032950912 Z " stroke="#191919" stroke-width="0.35 px" style="stroke-width:0.35;stroke-miterlimit:4;stroke-dasharray:none;stroke-linecap:square;fill:#cccccc;fill-opacity:0.88;fill-rule: evenodd"/>
<path id="Body003_f0036"  d="M 82.0 64.94887032950912 L 82.0 64.94887032950912 L 82.0 57.94887032950904 L 82.0 57.94887032950904 L 82.0 64.94887032950912 Z " stroke="#191919" stroke-width="0.35 px" style="stroke-width:0.35;stroke-miterlimit:4;stroke-dasharray:none;stroke-linecap:square;fill:#cccccc;fill-opacity:0.88;fill-rule: evenodd"/>
<path id="Body003_f0037"  d="M 160.49999999999994 67.44887032950912 A 2.5 2.5 0 0 0 163 64.9489L 162.99999999999994 64.94887032950912 A 2.5 2.5 0 0 1 160.5 67.4489L 160.49999999999994 67.44887032950912 Z " stroke="#191919" stroke-width="0.35 px" style="stroke-width:0.35;stroke-miterlimit:4;stroke-dasharray:none;stroke-linecap:square;fill:#cccccc;fill-opacity:0.88;fill-rule: evenodd"/>
<path id="Body003_f0038"  d="M 84.5 55.44887032950904 A 2.5 2.5 0 0 0 82 57.9489L 82.0 57.94887032950904 A 2.5 2.5 0 0 1 84.5 55.4489L 84.5 55.44887032950904 Z " stroke="#191919" stroke-width="0.35 px" style="stroke-width:0.35;stroke-miterlimit:4;stroke-dasharray:none;stroke-linecap:square;fill:#cccccc;fill-opacity:0.88;fill-rule: evenodd"/>
<path id="Body003_f0039"  d="M 162.99999999999994 57.94887032950904 L 162.99999999999994 57.94887032950904 L 162.99999999999994 64.94887032950912 L 162.99999999999994 64.94887032950912 L 162.99999999999994 57.94887032950904 Z " stroke="#191919" stroke-width="0.35 px" style="stroke-width:0.35;stroke-miterlimit:4;stroke-dasharray:none;stroke-linecap:square;fill:#cccccc;fill-opacity:0.88;fill-rule: evenodd"/>
<path id="Body003_f0040"  d="M 84.5 55.44887032950904 L 84.5 55.44887032950904 L 160.49999999999994 55.44887032950904 L 160.49999999999994 55.44887032950904 L 84.5 55.44887032950904 Z " stroke="#191919" stroke-width="0.35 px" style="stroke-width:0.35;stroke-miterlimit:4;stroke-dasharray:none;stroke-linecap:square;fill:#cccccc;fill-opacity:0.88;fill-rule: evenodd"/>
<path id="Body003_f0041"  d="M 162.99999999999994 57.94887032950904 A 2.5 2.5 0 0 0 160.5 55.4489L 160.49999999999994 55.44887032950904 A 2.5 2.5 0 0 1 163 57.9489L 162.99999999999994 57.94887032950904 Z " stroke="#191919" stroke-width="0.35 px" style="stroke-width:0.35;stroke-miterlimit:4;stroke-dasharray:none;stroke-linecap:square;fill:#cccccc;fill-opacity:0.88;fill-rule: evenodd"/>
<circle cx="185.0" cy="66.44887032950912" r="1.7" stroke="#191919" stroke-width="0.35 px" style="stroke-width:0.35;stroke-miterlimit:4;stroke-dasharray:none;stroke-linecap:square;fill:#cccccc"/>
<title>b'top'</title>
</g>
</svg>