<?xml version="1.0"?>
<!DOCTYPE svg PUBLIC "-//W3C//DTD SVG 1.1//EN" "http://www.w3.org/Graphics/SVG/1.1/DTD/svg11.dtd">
<svg width="408.0mm" height="218.0mm" viewBox="0 0 408.0 218.0" xmlns="http://www.w3.org/2000/svg" version="1.1">
<g id="Body" transform="translate(204.000000,85.448870) scale(1,-1)">
<path id="Body_f0000"  d="M -200.0 76.44887032950912 A 5 5 0 0 0 -195 81.4489L -195.0 81.44887032950912 A 5 5 0 0 1 -200 76.4489L -200.0 76.44887032950913 Z " stroke="#191919" stroke-width="0.35 px" style="stroke-width:0.35;stroke-miterlimit:4;stroke-dasharray:none;stroke-linecap:square;fill:#cccccc;fill-opacity:0.88;fill-rule: evenodd"/>
<path id="Body_f0001"  d="M -195.0 81.44887032950912 L -195.0 81.44887032950912 L 195.0 81.44887032950912 L 195.0 81.44887032950912 L -195.0 81.44887032950912 Z " stroke="#191919" stroke-width="0.35 px" style="stroke-width:0.35;stroke-miterlimit:4;stroke-dasharray:none;stroke-linecap:square;fill:#cccccc;fill-opacity:0.88;fill-rule: evenodd"/>
<path id="Body_f0002"  d="M -200.0 -123.55112967049087 L -200.0 -123.55112967049087 L -200.0 76.44887032950913 L -200.0 76.44887032950913 L -200.0 -123.55112967049087 Z " stroke="#191919" stroke-width="0.35 px" style="stroke-width:0.35;stroke-miterlimit:4;stroke-dasharray:none;stroke-linecap:square;fill:#cccccc;fill-opacity:0.88;fill-rule: evenodd"/>
<circle cx="-185.0" cy="-113.55112967049087" r="1.7" stroke="#191919" stroke-width="0.35 px" style="stroke-width:0.35;stroke-miterlimit:4;stroke-dasharray:none;stroke-linecap:square;fill:#cccccc"/>
<circle cx="-185.0" cy="-113.55112967049087" r="1.7" stroke="#191919" stroke-width="0.35 px" style="stroke-width:0.35;stroke-miterlimit:4;stroke-dasharray:none;stroke-linecap:square;fill:#cccccc"/>
<path id="Body_f0005"  d="M 194.99999999999997 81.44887032950912 A 5 5 0 0 0 200 76.4489L 200.0 76.44887032950912 A 5 5 0 0 1 195 81.4489L 195.0 81.44887032950912 Z " stroke="#191919" stroke-width="0.35 px" style="stroke-width:0.35;stroke-miterlimit:4;stroke-dasharray:none;stroke-linecap:square;fill:#cccccc;fill-opacity:0.88;fill-rule: evenodd"/>
<path id="Body_f0006"  d="M -195.0 -128.55112967049087 A 5 5 0 0 0 -200 -123.551L -200.0 -123.55112967049087 A 5 5 0 0 1 -195 -128.551L -195.0 -128.55112967049087 Z " stroke="#191919" stroke-width="0.35 px" style="stroke-width:0.35;stroke-miterlimit:4;stroke-dasharray:none;stroke-linecap:square;fill:#cccccc;fill-opacity:0.88;fill-rule: evenodd"/>
<path id="Body_f0007"  d="M 200.0 76.44887032950912 L 200.0 76.44887032950912 L 200.0 -123.55112967049088 L 200.0 -123.55112967049088 L 200.0 76.44887032950912 Z " stroke="#191919" stroke-width="0.35 px" style="stroke-width:0.35;stroke-miterlimit:4;stroke-dasharray:none;stroke-linecap:square;fill:#cccccc;fill-opacity:0.88;fill-rule: evenodd"/>
<path id="Body_f0008"  d="M 195.0 -128.55112967049087 L 195.0 -128.55112967049087 L -195.0 -128.55112967049087 L -195.0 -128.55112967049087 L 195.0 -128.55112967049087 Z " stroke="#191919" stroke-width="0.35 px" style="stroke-width:0.35;stroke-miterlimit:4;stroke-dasharray:none;stroke-linecap:square;fill:#cccccc;fill-opacity:0.88;fill-rule: evenodd"/>
<path id="Body_f0009"  d="M 200.0 -123.55112967049088 A 5 5 0 0 0 195 -128.551L 195.0 -128.55112967049087 A 5 5 0 0 1 200 -123.551L 200.0 -123.55112967049088 Z " stroke="#191919" stroke-width="0.35 px" style="stroke-width:0.35;stroke-miterlimit:4;stroke-dasharray:none;stroke-linecap:square;fill:#cccccc;fill-opacity:0.88;fill-rule: evenodd"/>
<circle cx="-185.0" cy="-113.55112967049087" r="1.7" stroke="#191919" stroke-width="0.35 px" style="stroke-width:0.35;stroke-miterlimit:4;stroke-dasharray:none;stroke-linecap:square;fill:#cccccc"/>
<path id="Body_f0011"  d="M -72.0 -45.94887032950913 L -72.0 -31.948870329509123 L -72.0 -31.948870329509123 L -72.0 -45.94887032950913 L -72.0 -45.94887032950913 Z " stroke="#191919" stroke-width="0.35 px" style="stroke-width:0.35;stroke-miterlimit:4;stroke-dasharray:none;stroke-linecap:square;fill:#cccccc;fill-opacity:0.88;fill-rule: evenodd"/>
<path id="Body_f0012"  d="M -72.0 -31.948870329509123 L -58.0 -31.948870329509123 L -58.0 -31.948870329509123 L -72.0 -31.948870329509123 L -72.0 -31.948870329509123 Z " stroke="#191919" stroke-width="0.35 px" style="stroke-width:0.35;stroke-miterlimit:4;stroke-dasharray:none;stroke-linecap:square;fill:#cccccc;fill-opacity:0.88;fill-rule: evenodd"/>
<path id="Body_f0013"  d="M -58.0 -45.94887032950913 L -72.0 -45.94887032950913 L -72.0 -45.94887032950913 L -58.0 -45.94887032950913 L -58.0 -45.94887032950913 Z " stroke="#191919" stroke-width="0.35 px" style="stroke-width:0.35;stroke-miterlimit:4;stroke-dasharray:none;stroke-linecap:square;fill:#cccccc;fill-opacity:0.88;fill-rule: evenodd"/>
<path id="Body_f0014"  d="M -58.0 -31.948870329509123 L -58.0 -45.94887032950913 L -58.0 -45.94887032950913 L -58.0 -31.948870329509123 L -58.0 -31.948870329509123 Z " stroke="#191919" stroke-width="0.35 px" style="stroke-width:0.35;stroke-miterlimit:4;stroke-dasharray:none;stroke-linecap:square;fill:#cccccc;fill-opacity:0.88;fill-rule: evenodd"/>
<circle cx="0.0" cy="-113.55112967049087" r="1.7" stroke="#191919" stroke-width="0.35 px" style="stroke-width:0.35;stroke-miterlimit:4;stroke-dasharray:none;stroke-linecap:square;fill:#cccccc"/>
<circle cx="185.0" cy="-113.55112967049087" r="1.7" stroke="#191919" stroke-width="0.35 px" style="stroke-width:0.35;stroke-miterlimit:4;stroke-dasharray:none;stroke-linecap:square;fill:#cccccc"/>
<path id="Body_f0017"  d="M 57.99999999999995 -45.94887032950632 L 57.99999999999995 -31.94887032951191 L 57.99999999999995 -31.94887032951191 L 57.99999999999995 -45.94887032950632 L 57.99999999999995 -45.94887032950632 Z " stroke="#191919" stroke-width="0.35 px" style="stroke-width:0.35;stroke-miterlimit:4;stroke-dasharray:none;stroke-linecap:square;fill:#cccccc;fill-opacity:0.88;fill-rule: evenodd"/>
<path id="Body_f0018"  d="M 57.99999999999995 -31.94887032951191 L 71.99999999999994 -31.94887032951191 L 71.99999999999994 -31.94887032951191 L 57.99999999999995 -31.94887032951191 L 57.99999999999995 -31.94887032951191 Z " stroke="#191919" stroke-width="0.35 px" style="stroke-width:0.35;stroke-miterlimit:4;stroke-dasharray:none;stroke-linecap:square;fill:#cccccc;fill-opacity:0.88;fill-rule: evenodd"/>
<path id="Body_f0019"  d="M 71.99999999999994 -45.94887032950632 L 57.99999999999995 -45.94887032950632 L 57.99999999999995 -45.94887032950632 L 71.99999999999994 -45.94887032950632 L 71.99999999999994 -45.94887032950632 Z " stroke="#191919" stroke-width="0.35 px" style="stroke-width:0.35;stroke-miterlimit:4;stroke-dasharray:none;stroke-linecap:square;fill:#cccccc;fill-opacity:0.88;fill-rule: evenodd"/>
<path id="Body_f0020"  d="M 71.99999999999994 -31.94887032951191 L 71.99999999999994 -45.94887032950632 L 71.99999999999994 -45.94887032950632 L 71.99999999999994 -31.94887032951191 L 71.99999999999994 -31.94887032951191 Z " stroke="#191919" stroke-width="0.35 px" style="stroke-width:0.35;stroke-miterlimit:4;stroke-dasharray:none;stroke-linecap:square;fill:#cccccc;fill-opacity:0.88;fill-rule: evenodd"/>
<path id="Body_f0021"  d="M -139.15999461960968 8.027358106075635 L -139.15999461960968 22.027358105978347 L -139.15999461960968 22.027358105978347 L -139.15999461960968 8.027358106075635 L -139.15999461960968 8.027358106075635 Z " stroke="#191919" stroke-width="0.35 px" style="stroke-width:0.35;stroke-miterlimit:4;stroke-dasharray:none;stroke-linecap:square;fill:#cccccc;fill-opacity:0.88;fill-rule: evenodd"/>
<path id="Body_f0022"  d="M -139.15999461960968 22.027358105978347 L -125.15999461960969 22.027358105978347 L -125.15999461960969 22.027358105978347 L -139.15999461960968 22.027358105978347 L -139.15999461960968 22.027358105978347 Z " stroke="#191919" stroke-width="0.35 px" style="stroke-width:0.35;stroke-miterlimit:4;stroke-dasharray:none;stroke-linecap:square;fill:#cccccc;fill-opacity:0.88;fill-rule: evenodd"/>
<path id="Body_f0023"  d="M -125.15999461960969 8.027358106075635 L -139.15999461960968 8.027358106075635 L -139.15999461960968 8.027358106075635 L -125.15999461960969 8.027358106075635 L -125.15999461960969 8.027358106075635 Z " stroke="#191919" stroke-width="0.35 px" style="stroke-width:0.35;stroke-miterlimit:4;stroke-dasharray:none;stroke-linecap:square;fill:#cccccc;fill-opacity:0.88;fill-rule: evenodd"/>
<path id="Body_f0024"  d="M -125.15999461960969 22.027358105978347 L -125.15999461960969 8.027358106075635 L -125.15999461960969 8.027358106075635 L -125.15999461960969 22.027358105978347 L -125.15999461960969 22.027358105978347 Z " stroke="#191919" stroke-width="0.35 px" style="stroke-width:0.35;stroke-miterlimit:4;stroke-dasharray:none;stroke-linecap:square;fill:#cccccc;fill-opacity:0.88;fill-rule: evenodd"/>
<path id="Body_f0025"  d="M -111.78590208429223 5.868873019782765 L -111.78590208429223 19.86887301962581 L -111.78590208429223 19.86887301962581 L -111.78590208429223 5.868873019782765 L -111.78590208429223 5.868873019782765 Z " stroke="#191919" stroke-width="0.35 px" style="stroke-width:0.35;stroke-miterlimit:4;stroke-dasharray:none;stroke-linecap:square;fill:#cccccc;fill-opacity:0.88;fill-rule: evenodd"/>
<path id="Body_f0026"  d="M -111.78590208429223 19.86887301962581 L -97.78590208429223 19.86887301962581 L -97.78590208429223 19.86887301962581 L -111.78590208429223 19.86887301962581 L -111.78590208429223 19.86887301962581 Z " stroke="#191919" stroke-width="0.35 px" style="stroke-width:0.35;stroke-miterlimit:4;stroke-dasharray:none;stroke-linecap:square;fill:#cccccc;fill-opacity:0.88;fill-rule: evenodd"/>
<path id="Body_f0027"  d="M -97.78590208429223 5.868873019782765 L -111.78590208429223 5.868873019782765 L -111.78590208429223 5.868873019782765 L -97.78590208429223 5.868873019782765 L -97.78590208429223 5.868873019782765 Z " stroke="#191919" stroke-width="0.35 px" style="stroke-width:0.35;stroke-miterlimit:4;stroke-dasharray:none;stroke-linecap:square;fill:#cccccc;fill-opacity:0.88;fill-rule: evenodd"/>
<path id="Body_f0028"  d="M -97.78590208429223 19.86887301962581 L -97.78590208429223 5.868873019782765 L -97.78590208429223 5.868873019782765 L -97.78590208429223 19.86887301962581 L -97.78590208429223 19.86887301962581 Z " stroke="#191919" stroke-width="0.35 px" style="stroke-width:0.35;stroke-miterlimit:4;stroke-dasharray:none;stroke-linecap:square;fill:#cccccc;fill-opacity:0.88;fill-rule: evenodd"/>
<path id="Body_f0029"  d="M -86.99999999999994 -5.948870329487573 L -86.99999999999994 8.051129670469319 L -86.99999999999994 8.051129670469319 L -86.99999999999994 -5.948870329487573 L -86.99999999999994 -5.948870329487573 Z " stroke="#191919" stroke-width="0.35 px" style="stroke-width:0.35;stroke-miterlimit:4;stroke-dasharray:none;stroke-linecap:square;fill:#cccccc;fill-opacity:0.88;fill-rule: evenodd"/>
<path id="Body_f0030"  d="M -86.99999999999994 8.051129670469319 L -72.99999999999994 8.051129670469319 L -72.99999999999994 8.051129670469319 L -86.99999999999994 8.051129670469319 L -86.99999999999994 8.051129670469319 Z " stroke="#191919" stroke-width="0.35 px" style="stroke-width:0.35;stroke-miterlimit:4;stroke-dasharray:none;stroke-linecap:square;fill:#cccccc;fill-opacity:0.88;fill-rule: evenodd"/>
<path id="Body_f0031"  d="M -72.99999999999994 -5.948870329487573 L -86.99999999999994 -5.948870329487573 L -86.99999999999994 -5.948870329487573 L -72.99999999999994 -5.948870329487573 L -72.99999999999994 -5.948870329487573 Z " stroke="#191919" stroke-width="0.35 px" style="stroke-width:0.35;stroke-miterlimit:4;stroke-dasharray:none;stroke-linecap:square;fill:#cccccc;fill-opacity:0.88;fill-rule: evenodd"/>
<path id="Body_f0032"  d="M -72.99999999999994 8.051129670469319 L -72.99999999999994 -5.948870329487573 L -72.99999999999994 -5.948870329487573 L -72.99999999999994 8.051129670469319 L -72.99999999999994 8.051129670469319 Z " stroke="#191919" stroke-width="0.35 px" style="stroke-width:0.35;stroke-miterlimit:4;stroke-dasharray:none;stroke-linecap:square;fill:#cccccc;fill-opacity:0.88;fill-rule: evenodd"/>
<path id="Body_f0033"  d="M -104.79778786652417 31.948870329617012 L -104.79778786652417 45.94887032940122 L -104.79778786652417 45.94887032940122 L -104.79778786652417 31.948870329617012 L -104.79778786652417 31.948870329617012 Z " stroke="#191919" stroke-width="0.35 px" style="stroke-width:0.35;stroke-miterlimit:4;stroke-dasharray:none;stroke-linecap:square;fill:#cccccc;fill-opacity:0.88;fill-rule: evenodd"/>
<path id="Body_f0034"  d="M -104.79778786652417 45.94887032940122 L -90.79778786652417 45.94887032940122 L -90.79778786652417 45.94887032940122 L -104.79778786652417 45.94887032940122 L -104.79778786652417 45.94887032940122 Z " stroke="#191919" stroke-width="0.35 px" style="stroke-width:0.35;stroke-miterlimit:4;stroke-dasharray:none;stroke-linecap:square;fill:#cccccc;fill-opacity:0.88;fill-rule: evenodd"/>
<path id="Body_f0035"  d="M -90.79778786652417 31.948870329617012 L -104.79778786652417 31.948870329617012 L -104.79778786652417 31.948870329617012 L -90.79778786652417 31.948870329617012 L -90.79778786652417 31.948870329617012 Z " stroke="#191919" stroke-width="0.35 px" style="stroke-width:0.35;stroke-miterlimit:4;stroke-dasharray:none;stroke-linecap:square;fill:#cccccc;fill-opacity:0.88;fill-rule: evenodd"/>
<path id="Body_f0036"  d="M -90.79778786652417 45.94887032940122 L -90.79778786652417 31.948870329617012 L -90.79778786652417 31.948870329617012 L -90.79778786652417 45.94887032940122 L -90.79778786652417 45.94887032940122 Z " stroke="#191919" stroke-width="0.35 px" style="stroke-width:0.35;stroke-miterlimit:4;stroke-dasharray:none;stroke-linecap:square;fill:#cccccc;fill-opacity:0.88;fill-rule: evenodd"/>
<circle cx="-185.0" cy="66.44887032950912" r="1.7" stroke="#191919" stroke-width="0.35 px" style="stroke-width:0.35;stroke-miterlimit:4;stroke-dasharray:none;stroke-linecap:square;fill:#cccccc"/>
<path id="Body_f0038"  d="M -121.0 58.95000000000002 L -121.0 58.95000000000002 L -151.0 58.95000000000002 L -151.0 58.95000000000002 L -121.0 58.95000000000002 Z " stroke="#191919" stroke-width="0.35 px" style="stroke-width:0.35;stroke-miterlimit:4;stroke-dasharray:none;stroke-linecap:square;fill:#cccccc;fill-opacity:0.88;fill-rule: evenodd"/>
<path id="Body_f0039"  d="M -151.0 58.95000000000002 L -151.0 58.95000000000002 L -151.0 41.95000000000002 L -151.0 41.95000000000002 L -151.0 58.95000000000002 Z " stroke="#191919" stroke-width="0.35 px" style="stroke-width:0.35;stroke-miterlimit:4;stroke-dasharray:none;stroke-linecap:square;fill:#cccccc;fill-opacity:0.88;fill-rule: evenodd"/>
<path id="Body_f0040"  d="M -151.0 41.95000000000002 L -151.0 41.95000000000002 L -121.0 41.95000000000002 L -121.0 41.95000000000002 L -151.0 41.95000000000002 Z " stroke="#191919" stroke-width="0.35 px" style="stroke-width:0.35;stroke-miterlimit:4;stroke-dasharray:none;stroke-linecap:square;fill:#cccccc;fill-opacity:0.88;fill-rule: evenodd"/>
<path id="Body_f0041"  d="M -121.0 41.95000000000002 L -121.0 41.95000000000002 L -121.0 58.95000000000002 L -121.0 58.95000000000002 L -121.0 41.95000000000002 Z " stroke="#191919" stroke-width="0.35 px" style="stroke-width:0.35;stroke-miterlimit:4;stroke-dasharray:none;stroke-linecap:square;fill:#cccccc;fill-opacity:0.88;fill-rule: evenodd"/>
<circle cx="-60.0" cy="66.44887032950912" r="1.7" stroke="#191919" stroke-width="0.35 px" style="stroke-width:0.35;stroke-miterlimit:4;stroke-dasharray:none;stroke-linecap:square;fill:#cccccc"/>
<path id="Body_f0043"  d="M 73.0 -10.948870329479652 L 73.0 3.051129670461412 L 73.0 3.051129670461412 L 73.0 -10.948870329479652 L 73.0 -10.948870329479652 Z " stroke="#191919" stroke-width="0.35 px" style="stroke-width:0.35;stroke-miterlimit:4;stroke-dasharray:none;stroke-linecap:square;fill:#cccccc;fill-opacity:0.88;fill-rule: evenodd"/>
<path id="Body_f0044"  d="M 73.0 3.051129670461412 L 87.0 3.051129670461412 L 87.0 3.051129670461412 L 73.0 3.051129670461412 L 73.0 3.051129670461412 Z " stroke="#191919" stroke-width="0.35 px" style="stroke-width:0.35;stroke-miterlimit:4;stroke-dasharray:none;stroke-linecap:square;fill:#cccccc;fill-opacity:0.88;fill-rule: evenodd"/>
<path id="Body_f0045"  d="M 87.0 -10.948870329479652 L 73.0 -10.948870329479652 L 73.0 -10.948870329479652 L 87.0 -10.948870329479652 L 87.0 -10.948870329479652 Z " stroke="#191919" stroke-width="0.35 px" style="stroke-width:0.35;stroke-miterlimit:4;stroke-dasharray:none;stroke-linecap:square;fill:#cccccc;fill-opacity:0.88;fill-rule: evenodd"/>
<path id="Body_f0046"  d="M 87.0 3.051129670461412 L 87.0 -10.948870329479652 L 87.0 -10.948870329479652 L 87.0 3.051129670461412 L 87.0 3.051129670461412 Z " stroke="#191919" stroke-width="0.35 px" style="stroke-width:0.35;stroke-miterlimit:4;stroke-dasharray:none;stroke-linecap:square;fill:#cccccc;fill-opacity:0.88;fill-rule: evenodd"/>
<path id="Body_f0047"  d="M 66.01188578223193 15.131126980354601 L 66.01188578223193 29.13112698023683 L 66.01188578223193 29.13112698023683 L 66.01188578223193 15.131126980354601 L 66.01188578223193 15.131126980354601 Z " stroke="#191919" stroke-width="0.35 px" style="stroke-width:0.35;stroke-miterlimit:4;stroke-dasharray:none;stroke-linecap:square;fill:#cccccc;fill-opacity:0.88;fill-rule: evenodd"/>
<path id="Body_f0048"  d="M 66.01188578223193 29.13112698023683 L 80.01188578223193 29.13112698023683 L 80.01188578223193 29.13112698023683 L 66.01188578223193 29.13112698023683 L 66.01188578223193 29.13112698023683 Z " stroke="#191919" stroke-width="0.35 px" style="stroke-width:0.35;stroke-miterlimit:4;stroke-dasharray:none;stroke-linecap:square;fill:#cccccc;fill-opacity:0.88;fill-rule: evenodd"/>
<path id="Body_f0049"  d="M 80.01188578223193 15.131126980354601 L 66.01188578223193 15.131126980354601 L 66.01188578223193 15.131126980354601 L 80.01188578223193 15.131126980354601 L 80.01188578223193 15.131126980354601 Z " stroke="#191919" stroke-width="0.35 px" style="stroke-width:0.35;stroke-miterlimit:4;stroke-dasharray:none;stroke-linecap:square;fill:#cccccc;fill-opacity:0.88;fill-rule: evenodd"/>
<path id="Body_f0050"  d="M 80.01188578223193 29.13112698023683 L 80.01188578223193 15.131126980354601 L 80.01188578223193 15.131126980354601 L 80.01188578223193 29.13112698023683 L 80.01188578223193 29.13112698023683 Z " stroke="#191919" stroke-width="0.35 px" style="stroke-width:0.35;stroke-miterlimit:4;stroke-dasharray:none;stroke-linecap:square;fill:#cccccc;fill-opacity:0.88;fill-rule: evenodd"/>
<path id="Body_f0051"  d="M 97.78590208429225 0.868873019792989 L 97.78590208429225 14.868873019615547 L 97.78590208429225 14.868873019615547 L 97.78590208429225 0.868873019792989 L 97.78590208429225 0.868873019792989 Z " stroke="#191919" stroke-width="0.35 px" style="stroke-width:0.35;stroke-miterlimit:4;stroke-dasharray:none;stroke-linecap:square;fill:#cccccc;fill-opacity:0.88;fill-rule: evenodd"/>
<path id="Body_f0052"  d="M 97.78590208429225 14.868873019615547 L 111.78590208429225 14.868873019615547 L 111.78590208429225 14.868873019615547 L 97.78590208429225 14.868873019615547 L 97.78590208429225 14.868873019615547 Z " stroke="#191919" stroke-width="0.35 px" style="stroke-width:0.35;stroke-miterlimit:4;stroke-dasharray:none;stroke-linecap:square;fill:#cccccc;fill-opacity:0.88;fill-rule: evenodd"/>
<path id="Body_f0053"  d="M 111.78590208429225 0.868873019792989 L 97.78590208429225 0.868873019792989 L 97.78590208429225 0.868873019792989 L 111.78590208429225 0.868873019792989 L 111.78590208429225 0.868873019792989 Z " stroke="#191919" stroke-width="0.35 px" style="stroke-width:0.35;stroke-miterlimit:4;stroke-dasharray:none;stroke-linecap:square;fill:#cccccc;fill-opacity:0.88;fill-rule: evenodd"/>
<path id="Body_f0054"  d="M 111.78590208429225 14.868873019615547 L 111.78590208429225 0.868873019792989 L 111.78590208429225 0.868873019792989 L 111.78590208429225 14.868873019615547 L 111.78590208429225 14.868873019615547 Z " stroke="#191919" stroke-width="0.35 px" style="stroke-width:0.35;stroke-miterlimit:4;stroke-dasharray:none;stroke-linecap:square;fill:#cccccc;fill-opacity:0.88;fill-rule: evenodd"/>
<path id="Body_f0055"  d="M 125.15999461960968 3.02735810620522 L 125.15999461960968 17.027358105848773 L 125.15999461960968 17.027358105848773 L 125.15999461960968 3.02735810620522 L 125.15999461960968 3.02735810620522 Z " stroke="#191919" stroke-width="0.35 px" style="stroke-width:0.35;stroke-miterlimit:4;stroke-dasharray:none;stroke-linecap:square;fill:#cccccc;fill-opacity:0.88;fill-rule: evenodd"/>
<path id="Body_f0056"  d="M 125.15999461960968 17.027358105848773 L 139.15999461960968 17.027358105848773 L 139.15999461960968 17.027358105848773 L 125.15999461960968 17.027358105848773 L 125.15999461960968 17.027358105848773 Z " stroke="#191919" stroke-width="0.35 px" style="stroke-width:0.35;stroke-miterlimit:4;stroke-dasharray:none;stroke-linecap:square;fill:#cccccc;fill-opacity:0.88;fill-rule: evenodd"/>
<path id="Body_f0057"  d="M 139.15999461960968 3.02735810620522 L 125.15999461960968 3.02735810620522 L 125.15999461960968 3.02735810620522 L 139.15999461960968 3.02735810620522 L 139.15999461960968 3.02735810620522 Z " stroke="#191919" stroke-width="0.35 px" style="stroke-width:0.35;stroke-miterlimit:4;stroke-dasharray:none;stroke-linecap:square;fill:#cccccc;fill-opacity:0.88;fill-rule: evenodd"/>
<path id="Body_f0058"  d="M 139.15999461960968 17.027358105848773 L 139.15999461960968 3.02735810620522 L 139.15999461960968 3.02735810620522 L 139.15999461960968 17.027358105848773 L 139.15999461960968 17.027358105848773 Z " stroke="#191919" stroke-width="0.35 px" style="stroke-width:0.35;stroke-miterlimit:4;stroke-dasharray:none;stroke-linecap:square;fill:#cccccc;fill-opacity:0.88;fill-rule: evenodd"/>
<path id="Body_f0059"  d="M 151.9656810819826 -4.283946379321571 L 151.9656810819826 -4.283946379321571 L 165.9656810819826 -4.283946379321571 L 165.9656810819826 -4.28394637932157 L 151.9656810819826 -4.28394637932157 Z " stroke="#191919" stroke-width="0.35 px" style="stroke-width:0.35;stroke-miterlimit:4;stroke-dasharray:none;stroke-linecap:square;fill:#cccccc;fill-opacity:0.88;fill-rule: evenodd"/>
<path id="Body_f0060"  d="M 165.9656810819826 -4.28394637932157 L 165.9656810819826 -4.28394637932157 L 165.9656810819826 9.716053620202647 L 165.9656810819826 9.716053620202647 L 165.9656810819826 -4.283946379321572 Z " stroke="#191919" stroke-width="0.35 px" style="stroke-width:0.35;stroke-miterlimit:4;stroke-dasharray:none;stroke-linecap:square;fill:#cccccc;fill-opacity:0.88;fill-rule: evenodd"/>
<path id="Body_f0061"  d="M 151.9656810819826 9.716053620202647 L 151.9656810819826 9.716053620202647 L 151.9656810819826 -4.283946379321571 L 151.9656810819826 -4.283946379321571 L 151.9656810819826 9.716053620202647 Z " stroke="#191919" stroke-width="0.35 px" style="stroke-width:0.35;stroke-miterlimit:4;stroke-dasharray:none;stroke-linecap:square;fill:#cccccc;fill-opacity:0.88;fill-rule: evenodd"/>
<path id="Body_f0062"  d="M 165.9656810819826 9.716053620202647 L 165.9656810819826 9.716053620202647 L 151.9656810819826 9.716053620202647 L 151.9656810819826 9.716053620202647 L 165.9656810819826 9.716053620202645 Z " stroke="#191919" stroke-width="0.35 px" style="stroke-width:0.35;stroke-miterlimit:4;stroke-dasharray:none;stroke-linecap:square;fill:#cccccc;fill-opacity:0.88;fill-rule: evenodd"/>
<circle cx="60.0" cy="66.44887032950912" r="1.7" stroke="#191919" stroke-width="0.35 px" style="stroke-width:0.35;stroke-miterlimit:4;stroke-dasharray:none;stroke-linecap:square;fill:#cccccc"/>
<path id="Body_f0064"  d="M 84.49999999999997 67.44887032950912 A 2 2 0 0 0 86.5 69.4489L 86.49999999999997 69.44887032950912 A 2 2 0 0 1 84.5 67.4489L 84.49999999999997 67.44887032950912 Z " stroke="#191919" stroke-width="0.35 px" style="stroke-width:0.35;stroke-miterlimit:4;stroke-dasharray:none;stroke-linecap:square;fill:#cccccc;fill-opacity:0.88;fill-rule: evenodd"/>
<path id="Body_f0065"  d="M 98.49999999999997 69.44887032950912 L 98.49999999999997 69.44887032950912 L 86.49999999999997 69.44887032950912 L 86.49999999999997 69.44887032950912 L 98.49999999999997 69.44887032950912 Z " stroke="#191919" stroke-width="0.35 px" style="stroke-width:0.35;stroke-miterlimit:4;stroke-dasharray:none;stroke-linecap:square;fill:#cccccc;fill-opacity:0.88;fill-rule: evenodd"/>
<path id="Body_f0066"  d="M 84.49999999999997 67.44887032950912 L 84.49999999999997 67.44887032950912 L 84.49999999999997 55.44887032950904 L 84.49999999999997 55.44887032950904 L 84.49999999999997 67.44887032950912 Z " stroke="#191919" stroke-width="0.35 px" style="stroke-width:0.35;stroke-miterlimit:4;stroke-dasharray:none;stroke-linecap:square;fill:#cccccc;fill-opacity:0.88;fill-rule: evenodd"/>
<path id="Body_f0067"  d="M 98.49999999999997 69.44887032950912 A 2 2 0 0 0 100.5 67.4489L 100.49999999999997 67.44887032950912 A 2 2 0 0 1 98.5 69.4489L 98.49999999999997 69.44887032950912 Z " stroke="#191919" stroke-width="0.35 px" style="stroke-width:0.35;stroke-miterlimit:4;stroke-dasharray:none;stroke-linecap:square;fill:#cccccc;fill-opacity:0.88;fill-rule: evenodd"/>
<path id="Body_f0068"  d="M 86.49999999999991 53.4488703295091 A 2 2 0 0 0 84.5 55.4489L 84.49999999999997 55.44887032950904 A 2 2 0 0 1 86.5 53.4489L 86.49999999999991 53.4488703295091 Z " stroke="#191919" stroke-width="0.35 px" style="stroke-width:0.35;stroke-miterlimit:4;stroke-dasharray:none;stroke-linecap:square;fill:#cccccc;fill-opacity:0.88;fill-rule: evenodd"/>
<path id="Body_f0069"  d="M 100.49999999999997 55.44887032950912 L 100.49999999999997 55.44887032950912 L 100.49999999999997 67.44887032950912 L 100.49999999999997 67.44887032950912 L 100.49999999999997 55.44887032950912 Z " stroke="#191919" stroke-width="0.35 px" style="stroke-width:0.35;stroke-miterlimit:4;stroke-dasharray:none;stroke-linecap:square;fill:#cccccc;fill-opacity:0.88;fill-rule: evenodd"/>
<path id="Body_f0070"  d="M 86.49999999999991 53.4488703295091 L 86.49999999999991 53.4488703295091 L 98.49999999999994 53.4488703295091 L 98.49999999999994 53.4488703295091 L 86.49999999999991 53.44887032950909 Z " stroke="#191919" stroke-width="0.35 px" style="stroke-width:0.35;stroke-miterlimit:4;stroke-dasharray:none;stroke-linecap:square;fill:#cccccc;fill-opacity:0.88;fill-rule: evenodd"/>
<path id="Body_f0071"  d="M 100.49999999999997 55.44887032950912 A 2 2 0 0 0 98.5 53.4489L 98.49999999999994 53.4488703295091 A 2 2 0 0 1 100.5 55.4489L 100.49999999999997 55.44887032950912 Z " stroke="#191919" stroke-width="0.35 px" style="stroke-width:0.35;stroke-miterlimit:4;stroke-dasharray:none;stroke-linecap:square;fill:#cccccc;fill-opacity:0.88;fill-rule: evenodd"/>
<path id="Body_f0072"  d="M 90.79778786652419 26.94887032962768 L 90.79778786652419 40.94887032939057 L 90.79778786652419 40.94887032939057 L 90.79778786652419 26.94887032962768 L 90.79778786652419 26.94887032962768 Z " stroke="#191919" stroke-width="0.35 px" style="stroke-width:0.35;stroke-miterlimit:4;stroke-dasharray:none;stroke-linecap:square;fill:#cccccc;fill-opacity:0.88;fill-rule: evenodd"/>
<path id="Body_f0073"  d="M 90.79778786652419 40.94887032939057 L 104.79778786652419 40.94887032939057 L 104.79778786652419 40.94887032939057 L 90.79778786652419 40.94887032939057 L 90.79778786652419 40.94887032939057 Z " stroke="#191919" stroke-width="0.35 px" style="stroke-width:0.35;stroke-miterlimit:4;stroke-dasharray:none;stroke-linecap:square;fill:#cccccc;fill-opacity:0.88;fill-rule: evenodd"/>
<path id="Body_f0074"  d="M 104.79778786652419 26.94887032962768 L 90.79778786652419 26.94887032962768 L 90.79778786652419 26.94887032962768 L 104.79778786652419 26.94887032962768 L 104.79778786652419 26.94887032962768 Z " stroke="#191919" stroke-width="0.35 px" style="stroke-width:0.35;stroke-miterlimit:4;stroke-dasharray:none;stroke-linecap:square;fill:#cccccc;fill-opacity:0.88;fill-rule: evenodd"/>
<path id="Body_f0075"  d="M 104.79778786652419 40.94887032939057 L 104.79778786652419 26.94887032962768 L 104.79778786652419 26.94887032962768 L 104.79778786652419 40.94887032939057 L 104.79778786652419 40.94887032939057 Z " stroke="#191919" stroke-width="0.35 px" style="stroke-width:0.35;stroke-miterlimit:4;stroke-dasharray:none;stroke-linecap:square;fill:#cccccc;fill-opacity:0.88;fill-rule: evenodd"/>
<path id="Body_f0076"  d="M 118.17188040184163 29.107355415980233 L 118.17188040184163 43.10735541568345 L 118.17188040184163 43.10735541568345 L 118.17188040184163 29.107355415980233 L 118.17188040184163 29.107355415980233 Z " stroke="#191919" stroke-width="0.35 px" style="stroke-width:0.35;stroke-miterlimit:4;stroke-dasharray:none;stroke-linecap:square;fill:#cccccc;fill-opacity:0.88;fill-rule: evenodd"/>
<path id="Body_f0077"  d="M 118.17188040184163 43.10735541568345 L 132.17188040184163 43.10735541568345 L 132.17188040184163 43.10735541568345 L 118.17188040184163 43.10735541568345 L 118.17188040184163 43.10735541568345 Z " stroke="#191919" stroke-width="0.35 px" style="stroke-width:0.35;stroke-miterlimit:4;stroke-dasharray:none;stroke-linecap:square;fill:#cccccc;fill-opacity:0.88;fill-rule: evenodd"/>
<path id="Body_f0078"  d="M 132.17188040184163 29.107355415980233 L 118.17188040184163 29.107355415980233 L 118.17188040184163 29.107355415980233 L 132.17188040184163 29.107355415980233 L 132.17188040184163 29.107355415980233 Z " stroke="#191919" stroke-width="0.35 px" style="stroke-width:0.35;stroke-miterlimit:4;stroke-dasharray:none;stroke-linecap:square;fill:#cccccc;fill-opacity:0.88;fill-rule: evenodd"/>
<path id="Body_f0079"  d="M 132.17188040184163 43.10735541568345 L 132.17188040184163 29.107355415980233 L 132.17188040184163 29.107355415980233 L 132.17188040184163 43.10735541568345 L 132.17188040184163 43.10735541568345 Z " stroke="#191919" stroke-width="0.35 px" style="stroke-width:0.35;stroke-miterlimit:4;stroke-dasharray:none;stroke-linecap:square;fill:#cccccc;fill-opacity:0.88;fill-rule: evenodd"/>
<path id="Body_f0080"  d="M 144.97756686421457 21.796050930453447 L 144.97756686421457 35.79605093003733 L 144.97756686421457 35.79605093003733 L 144.97756686421457 21.796050930453447 L 144.97756686421457 21.796050930453447 Z " stroke="#191919" stroke-width="0.35 px" style="stroke-width:0.35;stroke-miterlimit:4;stroke-dasharray:none;stroke-linecap:square;fill:#cccccc;fill-opacity:0.88;fill-rule: evenodd"/>
<path id="Body_f0081"  d="M 144.97756686421457 35.79605093003733 L 158.97756686421457 35.79605093003733 L 158.97756686421457 35.79605093003733 L 144.97756686421457 35.79605093003733 L 144.97756686421457 35.79605093003733 Z " stroke="#191919" stroke-width="0.35 px" style="stroke-width:0.35;stroke-miterlimit:4;stroke-dasharray:none;stroke-linecap:square;fill:#cccccc;fill-opacity:0.88;fill-rule: evenodd"/>
<path id="Body_f0082"  d="M 158.97756686421457 21.796050930453447 L 144.97756686421457 21.796050930453447 L 144.97756686421457 21.796050930453447 L 158.97756686421457 21.796050930453447 L 158.97756686421457 21.796050930453447 Z " stroke="#191919" stroke-width="0.35 px" style="stroke-width:0.35;stroke-miterlimit:4;stroke-dasharray:none;stroke-linecap:square;fill:#cccccc;fill-opacity:0.88;fill-rule: evenodd"/>
<path id="Body_f0083"  d="M 158.97756686421457 35.79605093003733 L 158.97756686421457 21.796050930453447 L 158.97756686421457 21.796050930453447 L 158.97756686421457 35.79605093003733 L 158.97756686421457 35.79605093003733 Z " stroke="#191919" stroke-width="0.35 px" style="stroke-width:0.35;stroke-miterlimit:4;stroke-dasharray:none;stroke-linecap:square;fill:#cccccc;fill-opacity:0.88;fill-rule: evenodd"/>
<path id="Body_f0084"  d="M 104.50000000000013 67.44887032950912 A 2 2 0 0 0 106.5 69.4489L 106.50000000000007 69.44887032950905 A 2 2 0 0 1 104.5 67.4489L 104.50000000000013 67.44887032950912 Z " stroke="#191919" stroke-width="0.35 px" style="stroke-width:0.35;stroke-miterlimit:4;stroke-dasharray:none;stroke-linecap:square;fill:#cccccc;fill-opacity:0.88;fill-rule: evenodd"/>
<path id="Body_f0085"  d="M 118.50000000000007 69.44887032950905 L 118.50000000000007 69.44887032950905 L 106.50000000000007 69.44887032950905 L 106.50000000000007 69.44887032950905 L 118.50000000000007 69.44887032950905 Z " stroke="#191919" stroke-width="0.35 px" style="stroke-width:0.35;stroke-miterlimit:4;stroke-dasharray:none;stroke-linecap:square;fill:#cccccc;fill-opacity:0.88;fill-rule: evenodd"/>
<path id="Body_f0086"  d="M 104.50000000000013 67.44887032950912 L 104.50000000000013 67.44887032950912 L 104.50000000000013 55.44887032950903 L 104.50000000000013 55.44887032950903 L 104.50000000000013 67.44887032950912 Z " stroke="#191919" stroke-width="0.35 px" style="stroke-width:0.35;stroke-miterlimit:4;stroke-dasharray:none;stroke-linecap:square;fill:#cccccc;fill-opacity:0.88;fill-rule: evenodd"/>
<path id="Body_f0087"  d="M 118.50000000000007 69.44887032950905 A 2 2 0 0 0 120.5 67.4489L 120.49999999999997 67.44887032950916 A 2 2 0 0 1 118.5 69.4489L 118.50000000000007 69.44887032950905 Z " stroke="#191919" stroke-width="0.35 px" style="stroke-width:0.35;stroke-miterlimit:4;stroke-dasharray:none;stroke-linecap:square;fill:#cccccc;fill-opacity:0.88;fill-rule: evenodd"/>
<path id="Body_f0088"  d="M 106.50000000000007 53.448870329509084 A 2 2 0 0 0 104.5 55.4489L 104.50000000000013 55.44887032950903 A 2 2 0 0 1 106.5 53.4489L 106.50000000000007 53.448870329509084 Z " stroke="#191919" stroke-width="0.35 px" style="stroke-width:0.35;stroke-miterlimit:4;stroke-dasharray:none;stroke-linecap:square;fill:#cccccc;fill-opacity:0.88;fill-rule: evenodd"/>
<path id="Body_f0089"  d="M 120.49999999999997 55.44887032950909 L 120.49999999999997 55.44887032950909 L 120.49999999999997 67.44887032950916 L 120.49999999999997 67.44887032950916 L 120.49999999999997 55.44887032950909 Z " stroke="#191919" stroke-width="0.35 px" style="stroke-width:0.35;stroke-miterlimit:4;stroke-dasharray:none;stroke-linecap:square;fill:#cccccc;fill-opacity:0.88;fill-rule: evenodd"/>
<path id="Body_f0090"  d="M 106.50000000000007 53.448870329509084 L 106.50000000000007 53.448870329509084 L 118.49999999999997 53.448870329509084 L 118.49999999999997 53.448870329509084 L 106.50000000000007 53.44887032950909 Z " stroke="#191919" stroke-width="0.35 px" style="stroke-width:0.35;stroke-miterlimit:4;stroke-dasharray:none;stroke-linecap:square;fill:#cccccc;fill-opacity:0.88;fill-rule: evenodd"/>
<path id="Body_f0091"  d="M 120.49999999999997 55.44887032950909 A 2 2 0 0 0 118.5 53.4489L 118.49999999999997 53.448870329509084 A 2 2 0 0 1 120.5 55.4489L 120.49999999999997 55.44887032950909 Z " stroke="#191919" stroke-width="0.35 px" style="stroke-width:0.35;stroke-miterlimit:4;stroke-dasharray:none;stroke-linecap:square;fill:#cccccc;fill-opacity:0.88;fill-rule: evenodd"/>
<path id="Body_f0092"  d="M 138.5 69.44887032950923 A 2 2 0 0 0 140.5 67.4489L 140.5 67.44887032950925 A 2 2 0 0 1 138.5 69.4489L 138.5 69.44887032950923 Z " stroke="#191919" stroke-width="0.35 px" style="stroke-width:0.35;stroke-miterlimit:4;stroke-dasharray:none;stroke-linecap:square;fill:#cccccc;fill-opacity:0.88;fill-rule: evenodd"/>
<path id="Body_f0093"  d="M 140.5 55.44887032950917 L 140.5 55.44887032950917 L 140.5 67.44887032950925 L 140.5 67.44887032950925 L 140.5 55.44887032950917 Z " stroke="#191919" stroke-width="0.35 px" style="stroke-width:0.35;stroke-miterlimit:4;stroke-dasharray:none;stroke-linecap:square;fill:#cccccc;fill-opacity:0.88;fill-rule: evenodd"/>
<path id="Body_f0094"  d="M 138.5 69.44887032950923 L 138.5 69.44887032950923 L 126.50000000000001 69.44887032950923 L 126.50000000000001 69.44887032950922 L 138.5 69.44887032950923 Z " stroke="#191919" stroke-width="0.35 px" style="stroke-width:0.35;stroke-miterlimit:4;stroke-dasharray:none;stroke-linecap:square;fill:#cccccc;fill-opacity:0.88;fill-rule: evenodd"/>
<path id="Body_f0095"  d="M 140.5 55.44887032950917 A 2 2 0 0 0 138.5 53.4489L 138.49999999999997 53.44887032950916 A 2 2 0 0 1 140.5 55.4489L 140.5 55.44887032950917 Z " stroke="#191919" stroke-width="0.35 px" style="stroke-width:0.35;stroke-miterlimit:4;stroke-dasharray:none;stroke-linecap:square;fill:#cccccc;fill-opacity:0.88;fill-rule: evenodd"/>
<path id="Body_f0096"  d="M 124.49999999999997 67.44887032950916 A 2 2 0 0 0 126.5 69.4489L 126.50000000000001 69.44887032950922 A 2 2 0 0 1 124.5 67.4489L 124.49999999999997 67.44887032950916 Z " stroke="#191919" stroke-width="0.35 px" style="stroke-width:0.35;stroke-miterlimit:4;stroke-dasharray:none;stroke-linecap:square;fill:#cccccc;fill-opacity:0.88;fill-rule: evenodd"/>
<path id="Body_f0097"  d="M 126.49999999999996 53.44887032950916 L 126.49999999999996 53.44887032950916 L 138.49999999999997 53.44887032950916 L 138.49999999999997 53.44887032950916 L 126.49999999999996 53.44887032950916 Z " stroke="#191919" stroke-width="0.35 px" style="stroke-width:0.35;stroke-miterlimit:4;stroke-dasharray:none;stroke-linecap:square;fill:#cccccc;fill-opacity:0.88;fill-rule: evenodd"/>
<path id="Body_f0098"  d="M 124.49999999999997 67.44887032950916 L 124.49999999999997 67.44887032950916 L 124.49999999999996 55.44887032950917 L 124.49999999999996 55.44887032950917 L 124.49999999999996 67.44887032950916 Z " stroke="#191919" stroke-width="0.35 px" style="stroke-width:0.35;stroke-miterlimit:4;stroke-dasharray:none;stroke-linecap:square;fill:#cccccc;fill-opacity:0.88;fill-rule: evenodd"/>
<path id="Body_f0099"  d="M 126.49999999999996 53.44887032950916 A 2 2 0 0 0 124.5 55.4489L 124.49999999999996 55.44887032950917 A 2 2 0 0 1 126.5 53.4489L 126.49999999999996 53.44887032950916 Z " stroke="#191919" stroke-width="0.35 px" style="stroke-width:0.35;stroke-miterlimit:4;stroke-dasharray:none;stroke-linecap:square;fill:#cccccc;fill-opacity:0.88;fill-rule: evenodd"/>
<path id="Body_f0100"  d="M 144.50000000000006 67.44887032950933 A 2 2 0 0 0 146.5 69.4489L 146.50000000000003 69.44887032950942 A 2 2 0 0 1 144.5 67.4489L 144.50000000000006 67.44887032950933 Z " stroke="#191919" stroke-width="0.35 px" style="stroke-width:0.35;stroke-miterlimit:4;stroke-dasharray:none;stroke-linecap:square;fill:#cccccc;fill-opacity:0.88;fill-rule: evenodd"/>
<path id="Body_f0101"  d="M 158.50000000000003 69.44887032950942 L 158.50000000000003 69.44887032950942 L 146.50000000000003 69.44887032950942 L 146.50000000000003 69.44887032950942 L 158.50000000000003 69.44887032950942 Z " stroke="#191919" stroke-width="0.35 px" style="stroke-width:0.35;stroke-miterlimit:4;stroke-dasharray:none;stroke-linecap:square;fill:#cccccc;fill-opacity:0.88;fill-rule: evenodd"/>
<path id="Body_f0102"  d="M 144.50000000000006 67.44887032950933 L 144.50000000000006 67.44887032950933 L 144.50000000000006 55.44887032950936 L 144.50000000000006 55.44887032950936 L 144.50000000000006 67.44887032950933 Z " stroke="#191919" stroke-width="0.35 px" style="stroke-width:0.35;stroke-miterlimit:4;stroke-dasharray:none;stroke-linecap:square;fill:#cccccc;fill-opacity:0.88;fill-rule: evenodd"/>
<path id="Body_f0103"  d="M 158.50000000000003 69.44887032950942 A 2 2 0 0 0 160.5 67.4489L 160.49999999999997 67.44887032950948 A 2 2 0 0 1 158.5 69.4489L 158.50000000000003 69.44887032950942 Z " stroke="#191919" stroke-width="0.35 px" style="stroke-width:0.35;stroke-miterlimit:4;stroke-dasharray:none;stroke-linecap:square;fill:#cccccc;fill-opacity:0.88;fill-rule: evenodd"/>
<path id="Body_f0104"  d="M 146.50000000000003 53.448870329509376 A 2 2 0 0 0 144.5 55.4489L 144.50000000000006 55.44887032950936 A 2 2 0 0 1 146.5 53.4489L 146.50000000000003 53.448870329509376 Z " stroke="#191919" stroke-width="0.35 px" style="stroke-width:0.35;stroke-miterlimit:4;stroke-dasharray:none;stroke-linecap:square;fill:#cccccc;fill-opacity:0.88;fill-rule: evenodd"/>
<path id="Body_f0105"  d="M 160.49999999999997 55.44887032950925 L 160.49999999999997 55.44887032950925 L 160.49999999999997 67.44887032950948 L 160.49999999999997 67.44887032950948 L 160.49999999999997 55.44887032950925 Z " stroke="#191919" stroke-width="0.35 px" style="stroke-width:0.35;stroke-miterlimit:4;stroke-dasharray:none;stroke-linecap:square;fill:#cccccc;fill-opacity:0.88;fill-rule: evenodd"/>
<path id="Body_f0106"  d="M 146.50000000000003 53.448870329509376 L 146.50000000000003 53.448870329509376 L 158.5000000000001 53.448870329509376 L 158.5000000000001 53.448870329509376 L 146.50000000000003 53.448870329509376 Z " stroke="#191919" stroke-width="0.35 px" style="stroke-width:0.35;stroke-miterlimit:4;stroke-dasharray:none;stroke-linecap:square;fill:#cccccc;fill-opacity:0.88;fill-rule: evenodd"/>
<path id="Body_f0107"  d="M 160.49999999999997 55.44887032950925 A 2 2 0 0 0 158.5 53.4489L 158.5000000000001 53.448870329509376 A 2 2 0 0 1 160.5 55.4489L 160.49999999999997 55.44887032950925 Z " stroke="#191919" stroke-width="0.35 px" style="stroke-width:0.35;stroke-miterlimit:4;stroke-dasharray:none;stroke-linecap:square;fill:#cccccc;fill-opacity:0.88;fill-rule: evenodd"/>
<circle cx="185.0" cy="66.44887032950912" r="1.7" stroke="#191919" stroke-width="0.35 px" style="stroke-width:0.35;stroke-miterlimit:4;stroke-dasharray:none;stroke-linecap:square;fill:#cccccc"/>
<title>b'middle'</title>
</g>
</svg>