<?xml version="1.0"?>
<!DOCTYPE svg PUBLIC "-//W3C//DTD SVG 1.1//EN" "http://www.w3.org/Graphics/SVG/1.1/DTD/svg11.dtd">
<svg width="408.0mm" height="218.0mm" viewBox="0 0 408.0 218.0" xmlns="http://www.w3.org/2000/svg" version="1.1">
<g id="Body001" transform="translate(204.000000,85.448870) scale(1,-1)">
<path id="Body001_f0000"  d="M -195.0 81.44887032950912 L -195.0 81.44887032950912 A 5 5 0 0 1 -200 76.4489L -200.0 76.44887032950913 A 5 5 0 0 0 -195 81.4489Z " stroke="#191919" stroke-width="0.35 px" style="stroke-width:0.35;stroke-miterlimit:4;stroke-dasharray:none;stroke-linecap:square;fill:#cccccc;fill-opacity:1.0;fill-rule: evenodd"/>
<path id="Body001_f0001"  d="M 195.0 81.44887032950912 L -195.0 81.44887032950912 L -195.0 81.44887032950912 L 195.0 81.44887032950912 L 195.0 81.44887032950912 Z " stroke="#191919" stroke-width="0.35 px" style="stroke-width:0.35;stroke-miterlimit:4;stroke-dasharray:none;stroke-linecap:square;fill:#cccccc;fill-opacity:1.0;fill-rule: evenodd"/>
<path id="Body001_f0002"  d="M -200.0 76.44887032950913 L -200.0 -123.55112967049087 L -200.0 -123.55112967049087 L -200.0 76.44887032950913 L -200.0 76.44887032950913 Z " stroke="#191919" stroke-width="0.35 px" style="stroke-width:0.35;stroke-miterlimit:4;stroke-dasharray:none;stroke-linecap:square;fill:#cccccc;fill-opacity:1.0;fill-rule: evenodd"/>
<circle cx="-185.0" cy="-113.55112967049087" r="1.7" stroke="#191919" stroke-width="0.35 px" style="stroke-width:0.35;stroke-miterlimit:4;stroke-dasharray:none;stroke-linecap:square;fill:#cccccc"/>
<circle cx="-185.0" cy="-113.55112967049087" r="1.7" stroke="#191919" stroke-width="0.35 px" style="stroke-width:0.35;stroke-miterlimit:4;stroke-dasharray:none;stroke-linecap:square;fill:#cccccc"/>
<path id="Body001_f0005"  d="M 200.0 76.44887032950912 L 200.0 76.44887032950912 A 5 5 0 0 1 195 81.4489L 195.0 81.44887032950912 A 5 5 0 0 0 200 76.4489Z " stroke="#191919" stroke-width="0.35 px" style="stroke-width:0.35;stroke-miterlimit:4;stroke-dasharray:none;stroke-linecap:square;fill:#cccccc;fill-opacity:1.0;fill-rule: evenodd"/>
<path id="Body001_f0006"  d="M -200.0 -123.55112967049087 L -200.0 -123.55112967049087 A 5 5 0 0 1 -195 -128.551L -195.0 -128.55112967049087 A 5 5 0 0 0 -200 -123.551Z " stroke="#191919" stroke-width="0.35 px" style="stroke-width:0.35;stroke-miterlimit:4;stroke-dasharray:none;stroke-linecap:square;fill:#cccccc;fill-opacity:1.0;fill-rule: evenodd"/>
<path id="Body001_f0007"  d="M 200.0 -123.55112967049088 L 200.0 76.44887032950912 L 200.0 76.44887032950912 L 200.0 -123.55112967049088 L 200.0 -123.55112967049088 Z " stroke="#191919" stroke-width="0.35 px" style="stroke-width:0.35;stroke-miterlimit:4;stroke-dasharray:none;stroke-linecap:square;fill:#cccccc;fill-opacity:1.0;fill-rule: evenodd"/>
<path id="Body001_f0008"  d="M -195.0 -128.55112967049087 L 195.0 -128.55112967049087 L 195.0 -128.55112967049087 L -195.0 -128.55112967049087 L -195.0 -128.55112967049087 Z " stroke="#191919" stroke-width="0.35 px" style="stroke-width:0.35;stroke-miterlimit:4;stroke-dasharray:none;stroke-linecap:square;fill:#cccccc;fill-opacity:1.0;fill-rule: evenodd"/>
<path id="Body001_f0009"  d="M 195.0 -128.55112967049087 L 195.0 -128.55112967049087 A 5 5 0 0 1 200 -123.551L 200.0 -123.55112967049088 A 5 5 0 0 0 195 -128.551Z " stroke="#191919" stroke-width="0.35 px" style="stroke-width:0.35;stroke-miterlimit:4;stroke-dasharray:none;stroke-linecap:square;fill:#cccccc;fill-opacity:1.0;fill-rule: evenodd"/>
<circle cx="-185.0" cy="-113.55112967049087" r="1.7" stroke="#191919" stroke-width="0.35 px" style="stroke-width:0.35;stroke-miterlimit:4;stroke-dasharray:none;stroke-linecap:square;fill:#cccccc"/>
<circle cx="0.0" cy="-113.55112967049087" r="1.7" stroke="#191919" stroke-width="0.35 px" style="stroke-width:0.35;stroke-miterlimit:4;stroke-dasharray:none;stroke-linecap:square;fill:#cccccc"/>
<circle cx="185.0" cy="-113.55112967049087" r="1.7" stroke="#191919" stroke-width="0.35 px" style="stroke-width:0.35;stroke-miterlimit:4;stroke-dasharray:none;stroke-linecap:square;fill:#cccccc"/>
<circle cx="-185.0" cy="66.44887032950912" r="1.7" stroke="#191919" stroke-width="0.35 px" style="stroke-width:0.35;stroke-miterlimit:4;stroke-dasharray:none;stroke-linecap:square;fill:#cccccc"/>
<circle cx="-60.0" cy="66.44887032950912" r="1.7" stroke="#191919" stroke-width="0.35 px" style="stroke-width:0.35;stroke-miterlimit:4;stroke-dasharray:none;stroke-linecap:square;fill:#cccccc"/>
<circle cx="60.0" cy="66.44887032950912" r="1.7" stroke="#191919" stroke-width="0.35 px" style="stroke-width:0.35;stroke-miterlimit:4;stroke-dasharray:none;stroke-linecap:square;fill:#cccccc"/>
<circle cx="185.0" cy="66.44887032950912" r="1.7" stroke="#191919" stroke-width="0.35 px" style="stroke-width:0.35;stroke-miterlimit:4;stroke-dasharray:none;stroke-linecap:square;fill:#cccccc"/>
<title>b'Bottom'</title>
</g>
</svg>