%TF.GenerationSoftware,KiCad,Pcbnew,7.0.10*%
%TF.CreationDate,2024-02-02T16:12:24-06:00*%
%TF.ProjectId,genbox,67656e62-6f78-42e6-9b69-6361645f7063,rev?*%
%TF.SameCoordinates,Original*%
%TF.FileFunction,Drillmap*%
%TF.FilePolarity,Positive*%
%FSLAX45Y45*%
G04 Gerber Fmt 4.5, Leading zero omitted, Abs format (unit mm)*
G04 Created by KiCad (PCBNEW 7.0.10) date 2024-02-02 16:12:24*
%MOMM*%
%LPD*%
G01*
G04 APERTURE LIST*
%ADD10C,0.100000*%
%ADD11C,0.200000*%
%ADD12C,0.175000*%
%ADD13C,0.398780*%
%ADD14C,0.400000*%
%ADD15C,0.500000*%
G04 APERTURE END LIST*
D10*
X11050000Y-8550000D02*
X12350000Y-8550000D01*
X12350000Y-6450000D01*
X12950000Y-6450000D01*
X12950000Y-7000000D01*
X24950000Y-7000000D01*
X24950000Y-9600000D01*
X39450000Y-9600000D01*
X39450000Y-15600000D01*
X30550000Y-15600000D01*
X30550000Y-21200000D01*
X19150000Y-21200000D01*
X7750000Y-21200000D01*
X7750000Y-15000000D01*
X2750000Y-15000000D01*
X2750000Y-7000000D01*
X10450000Y-7000000D01*
X10450000Y-6450000D01*
X11050000Y-6450000D01*
X11050000Y-8550000D01*
D11*
D12*
X5190500Y-12533690D02*
X5365500Y-12708690D01*
X5365500Y-12533690D02*
X5190500Y-12708690D01*
X6206500Y-12533690D02*
X6381500Y-12708690D01*
X6381500Y-12533690D02*
X6206500Y-12708690D01*
X8006400Y-12558050D02*
X8181400Y-12733050D01*
X8181400Y-12558050D02*
X8006400Y-12733050D01*
X8795800Y-9976030D02*
X8970800Y-10151030D01*
X8970800Y-9976030D02*
X8795800Y-10151030D01*
X9022400Y-12558050D02*
X9197400Y-12733050D01*
X9197400Y-12558050D02*
X9022400Y-12733050D01*
X9811800Y-9976030D02*
X9986800Y-10151030D01*
X9986800Y-9976030D02*
X9811800Y-10151030D01*
X10354500Y-14112500D02*
X10529500Y-14287500D01*
X10529500Y-14112500D02*
X10354500Y-14287500D01*
X10854500Y-19112500D02*
X11029500Y-19287500D01*
X11029500Y-19112500D02*
X10854500Y-19287500D01*
X11370500Y-14112500D02*
X11545500Y-14287500D01*
X11545500Y-14112500D02*
X11370500Y-14287500D01*
X11870500Y-19112500D02*
X12045500Y-19287500D01*
X12045500Y-19112500D02*
X11870500Y-19287500D01*
X27565100Y-12530480D02*
X27740100Y-12705480D01*
X27740100Y-12530480D02*
X27565100Y-12705480D01*
X27854500Y-19112500D02*
X28029500Y-19287500D01*
X28029500Y-19112500D02*
X27854500Y-19287500D01*
X28354500Y-15112500D02*
X28529500Y-15287500D01*
X28529500Y-15112500D02*
X28354500Y-15287500D01*
X28581100Y-12530480D02*
X28756100Y-12705480D01*
X28756100Y-12530480D02*
X28581100Y-12705480D01*
X28870500Y-19112500D02*
X29045500Y-19287500D01*
X29045500Y-19112500D02*
X28870500Y-19287500D01*
X29370500Y-15112500D02*
X29545500Y-15287500D01*
X29545500Y-15112500D02*
X29370500Y-15287500D01*
X29913200Y-10976030D02*
X30088200Y-11151030D01*
X30088200Y-10976030D02*
X29913200Y-11151030D01*
X30702600Y-13558050D02*
X30877600Y-13733050D01*
X30877600Y-13558050D02*
X30702600Y-13733050D01*
X30929200Y-10976030D02*
X31104200Y-11151030D01*
X31104200Y-10976030D02*
X30929200Y-11151030D01*
X31718600Y-13558050D02*
X31893600Y-13733050D01*
X31893600Y-13558050D02*
X31718600Y-13733050D01*
X32729100Y-10951670D02*
X32904100Y-11126670D01*
X32904100Y-10951670D02*
X32729100Y-11126670D01*
X33518500Y-13533690D02*
X33693500Y-13708690D01*
X33693500Y-13533690D02*
X33518500Y-13708690D01*
X33745100Y-10951670D02*
X33920100Y-11126670D01*
X33920100Y-10951670D02*
X33745100Y-11126670D01*
X34534500Y-13533690D02*
X34709500Y-13708690D01*
X34709500Y-13533690D02*
X34534500Y-13708690D01*
X35662000Y-11309830D02*
X35837000Y-11484830D01*
X35837000Y-11309830D02*
X35662000Y-11484830D01*
X36451400Y-13891850D02*
X36626400Y-14066850D01*
X36626400Y-13891850D02*
X36451400Y-14066850D01*
X36678000Y-11309830D02*
X36853000Y-11484830D01*
X36853000Y-11309830D02*
X36678000Y-11484830D01*
X37467400Y-13891850D02*
X37642400Y-14066850D01*
X37642400Y-13891850D02*
X37467400Y-14066850D01*
D13*
X5985390Y-12621190D02*
G75*
G03*
X5586610Y-12621190I-199390J0D01*
G01*
X5586610Y-12621190D02*
G75*
G03*
X5985390Y-12621190I199390J0D01*
G01*
X8801290Y-12645550D02*
G75*
G03*
X8402510Y-12645550I-199390J0D01*
G01*
X8402510Y-12645550D02*
G75*
G03*
X8801290Y-12645550I199390J0D01*
G01*
X9590690Y-10063530D02*
G75*
G03*
X9191910Y-10063530I-199390J0D01*
G01*
X9191910Y-10063530D02*
G75*
G03*
X9590690Y-10063530I199390J0D01*
G01*
X11149390Y-14200000D02*
G75*
G03*
X10750610Y-14200000I-199390J0D01*
G01*
X10750610Y-14200000D02*
G75*
G03*
X11149390Y-14200000I199390J0D01*
G01*
X11649390Y-19200000D02*
G75*
G03*
X11250610Y-19200000I-199390J0D01*
G01*
X11250610Y-19200000D02*
G75*
G03*
X11649390Y-19200000I199390J0D01*
G01*
X28359990Y-12617980D02*
G75*
G03*
X27961210Y-12617980I-199390J0D01*
G01*
X27961210Y-12617980D02*
G75*
G03*
X28359990Y-12617980I199390J0D01*
G01*
X28649390Y-19200000D02*
G75*
G03*
X28250610Y-19200000I-199390J0D01*
G01*
X28250610Y-19200000D02*
G75*
G03*
X28649390Y-19200000I199390J0D01*
G01*
X29149390Y-15200000D02*
G75*
G03*
X28750610Y-15200000I-199390J0D01*
G01*
X28750610Y-15200000D02*
G75*
G03*
X29149390Y-15200000I199390J0D01*
G01*
X30708090Y-11063530D02*
G75*
G03*
X30309310Y-11063530I-199390J0D01*
G01*
X30309310Y-11063530D02*
G75*
G03*
X30708090Y-11063530I199390J0D01*
G01*
X31497490Y-13645550D02*
G75*
G03*
X31098710Y-13645550I-199390J0D01*
G01*
X31098710Y-13645550D02*
G75*
G03*
X31497490Y-13645550I199390J0D01*
G01*
X33523990Y-11039170D02*
G75*
G03*
X33125210Y-11039170I-199390J0D01*
G01*
X33125210Y-11039170D02*
G75*
G03*
X33523990Y-11039170I199390J0D01*
G01*
X34313390Y-13621190D02*
G75*
G03*
X33914610Y-13621190I-199390J0D01*
G01*
X33914610Y-13621190D02*
G75*
G03*
X34313390Y-13621190I199390J0D01*
G01*
X36456890Y-11397330D02*
G75*
G03*
X36058110Y-11397330I-199390J0D01*
G01*
X36058110Y-11397330D02*
G75*
G03*
X36456890Y-11397330I199390J0D01*
G01*
X37246290Y-13979350D02*
G75*
G03*
X36847510Y-13979350I-199390J0D01*
G01*
X36847510Y-13979350D02*
G75*
G03*
X37246290Y-13979350I199390J0D01*
G01*
D14*
X19950000Y-7500000D02*
X19950000Y-7900000D01*
X19750000Y-7700000D02*
X20150000Y-7700000D01*
D15*
X20126778Y-15176778D02*
X20126778Y-14823222D01*
X19773222Y-14823222D01*
X19773222Y-15176778D01*
X20126778Y-15176778D01*
D11*
X3005777Y-21516484D02*
X3005777Y-21316484D01*
X3005777Y-21316484D02*
X3053396Y-21316484D01*
X3053396Y-21316484D02*
X3081967Y-21326008D01*
X3081967Y-21326008D02*
X3101015Y-21345055D01*
X3101015Y-21345055D02*
X3110539Y-21364103D01*
X3110539Y-21364103D02*
X3120062Y-21402198D01*
X3120062Y-21402198D02*
X3120062Y-21430770D01*
X3120062Y-21430770D02*
X3110539Y-21468865D01*
X3110539Y-21468865D02*
X3101015Y-21487912D01*
X3101015Y-21487912D02*
X3081967Y-21506960D01*
X3081967Y-21506960D02*
X3053396Y-21516484D01*
X3053396Y-21516484D02*
X3005777Y-21516484D01*
X3205777Y-21516484D02*
X3205777Y-21383150D01*
X3205777Y-21421246D02*
X3215301Y-21402198D01*
X3215301Y-21402198D02*
X3224824Y-21392674D01*
X3224824Y-21392674D02*
X3243872Y-21383150D01*
X3243872Y-21383150D02*
X3262920Y-21383150D01*
X3329586Y-21516484D02*
X3329586Y-21383150D01*
X3329586Y-21316484D02*
X3320062Y-21326008D01*
X3320062Y-21326008D02*
X3329586Y-21335531D01*
X3329586Y-21335531D02*
X3339110Y-21326008D01*
X3339110Y-21326008D02*
X3329586Y-21316484D01*
X3329586Y-21316484D02*
X3329586Y-21335531D01*
X3453396Y-21516484D02*
X3434348Y-21506960D01*
X3434348Y-21506960D02*
X3424824Y-21487912D01*
X3424824Y-21487912D02*
X3424824Y-21316484D01*
X3558158Y-21516484D02*
X3539110Y-21506960D01*
X3539110Y-21506960D02*
X3529586Y-21487912D01*
X3529586Y-21487912D02*
X3529586Y-21316484D01*
X3786729Y-21516484D02*
X3786729Y-21316484D01*
X3786729Y-21316484D02*
X3853396Y-21459341D01*
X3853396Y-21459341D02*
X3920062Y-21316484D01*
X3920062Y-21316484D02*
X3920062Y-21516484D01*
X4101015Y-21516484D02*
X4101015Y-21411722D01*
X4101015Y-21411722D02*
X4091491Y-21392674D01*
X4091491Y-21392674D02*
X4072443Y-21383150D01*
X4072443Y-21383150D02*
X4034348Y-21383150D01*
X4034348Y-21383150D02*
X4015301Y-21392674D01*
X4101015Y-21506960D02*
X4081967Y-21516484D01*
X4081967Y-21516484D02*
X4034348Y-21516484D01*
X4034348Y-21516484D02*
X4015301Y-21506960D01*
X4015301Y-21506960D02*
X4005777Y-21487912D01*
X4005777Y-21487912D02*
X4005777Y-21468865D01*
X4005777Y-21468865D02*
X4015301Y-21449817D01*
X4015301Y-21449817D02*
X4034348Y-21440293D01*
X4034348Y-21440293D02*
X4081967Y-21440293D01*
X4081967Y-21440293D02*
X4101015Y-21430770D01*
X4196253Y-21383150D02*
X4196253Y-21583150D01*
X4196253Y-21392674D02*
X4215301Y-21383150D01*
X4215301Y-21383150D02*
X4253396Y-21383150D01*
X4253396Y-21383150D02*
X4272444Y-21392674D01*
X4272444Y-21392674D02*
X4281967Y-21402198D01*
X4281967Y-21402198D02*
X4291491Y-21421246D01*
X4291491Y-21421246D02*
X4291491Y-21478389D01*
X4291491Y-21478389D02*
X4281967Y-21497436D01*
X4281967Y-21497436D02*
X4272444Y-21506960D01*
X4272444Y-21506960D02*
X4253396Y-21516484D01*
X4253396Y-21516484D02*
X4215301Y-21516484D01*
X4215301Y-21516484D02*
X4196253Y-21506960D01*
X4377205Y-21497436D02*
X4386729Y-21506960D01*
X4386729Y-21506960D02*
X4377205Y-21516484D01*
X4377205Y-21516484D02*
X4367682Y-21506960D01*
X4367682Y-21506960D02*
X4377205Y-21497436D01*
X4377205Y-21497436D02*
X4377205Y-21516484D01*
X4377205Y-21392674D02*
X4386729Y-21402198D01*
X4386729Y-21402198D02*
X4377205Y-21411722D01*
X4377205Y-21411722D02*
X4367682Y-21402198D01*
X4367682Y-21402198D02*
X4377205Y-21392674D01*
X4377205Y-21392674D02*
X4377205Y-21411722D01*
D12*
X2570000Y-21757500D02*
X2745000Y-21932500D01*
X2745000Y-21757500D02*
X2570000Y-21932500D01*
D11*
X3110539Y-21936484D02*
X2996253Y-21936484D01*
X3053396Y-21936484D02*
X3053396Y-21736484D01*
X3053396Y-21736484D02*
X3034348Y-21765055D01*
X3034348Y-21765055D02*
X3015301Y-21784103D01*
X3015301Y-21784103D02*
X2996253Y-21793627D01*
X3196253Y-21917436D02*
X3205777Y-21926960D01*
X3205777Y-21926960D02*
X3196253Y-21936484D01*
X3196253Y-21936484D02*
X3186729Y-21926960D01*
X3186729Y-21926960D02*
X3196253Y-21917436D01*
X3196253Y-21917436D02*
X3196253Y-21936484D01*
X3272443Y-21736484D02*
X3405777Y-21736484D01*
X3405777Y-21736484D02*
X3320062Y-21936484D01*
X3577205Y-21736484D02*
X3481967Y-21736484D01*
X3481967Y-21736484D02*
X3472443Y-21831722D01*
X3472443Y-21831722D02*
X3481967Y-21822198D01*
X3481967Y-21822198D02*
X3501015Y-21812674D01*
X3501015Y-21812674D02*
X3548634Y-21812674D01*
X3548634Y-21812674D02*
X3567682Y-21822198D01*
X3567682Y-21822198D02*
X3577205Y-21831722D01*
X3577205Y-21831722D02*
X3586729Y-21850770D01*
X3586729Y-21850770D02*
X3586729Y-21898389D01*
X3586729Y-21898389D02*
X3577205Y-21917436D01*
X3577205Y-21917436D02*
X3567682Y-21926960D01*
X3567682Y-21926960D02*
X3548634Y-21936484D01*
X3548634Y-21936484D02*
X3501015Y-21936484D01*
X3501015Y-21936484D02*
X3481967Y-21926960D01*
X3481967Y-21926960D02*
X3472443Y-21917436D01*
X3710539Y-21736484D02*
X3729586Y-21736484D01*
X3729586Y-21736484D02*
X3748634Y-21746008D01*
X3748634Y-21746008D02*
X3758158Y-21755531D01*
X3758158Y-21755531D02*
X3767682Y-21774579D01*
X3767682Y-21774579D02*
X3777205Y-21812674D01*
X3777205Y-21812674D02*
X3777205Y-21860293D01*
X3777205Y-21860293D02*
X3767682Y-21898389D01*
X3767682Y-21898389D02*
X3758158Y-21917436D01*
X3758158Y-21917436D02*
X3748634Y-21926960D01*
X3748634Y-21926960D02*
X3729586Y-21936484D01*
X3729586Y-21936484D02*
X3710539Y-21936484D01*
X3710539Y-21936484D02*
X3691491Y-21926960D01*
X3691491Y-21926960D02*
X3681967Y-21917436D01*
X3681967Y-21917436D02*
X3672443Y-21898389D01*
X3672443Y-21898389D02*
X3662920Y-21860293D01*
X3662920Y-21860293D02*
X3662920Y-21812674D01*
X3662920Y-21812674D02*
X3672443Y-21774579D01*
X3672443Y-21774579D02*
X3681967Y-21755531D01*
X3681967Y-21755531D02*
X3691491Y-21746008D01*
X3691491Y-21746008D02*
X3710539Y-21736484D01*
X3862920Y-21936484D02*
X3862920Y-21803150D01*
X3862920Y-21822198D02*
X3872443Y-21812674D01*
X3872443Y-21812674D02*
X3891491Y-21803150D01*
X3891491Y-21803150D02*
X3920063Y-21803150D01*
X3920063Y-21803150D02*
X3939110Y-21812674D01*
X3939110Y-21812674D02*
X3948634Y-21831722D01*
X3948634Y-21831722D02*
X3948634Y-21936484D01*
X3948634Y-21831722D02*
X3958158Y-21812674D01*
X3958158Y-21812674D02*
X3977205Y-21803150D01*
X3977205Y-21803150D02*
X4005777Y-21803150D01*
X4005777Y-21803150D02*
X4024824Y-21812674D01*
X4024824Y-21812674D02*
X4034348Y-21831722D01*
X4034348Y-21831722D02*
X4034348Y-21936484D01*
X4129586Y-21936484D02*
X4129586Y-21803150D01*
X4129586Y-21822198D02*
X4139110Y-21812674D01*
X4139110Y-21812674D02*
X4158158Y-21803150D01*
X4158158Y-21803150D02*
X4186729Y-21803150D01*
X4186729Y-21803150D02*
X4205777Y-21812674D01*
X4205777Y-21812674D02*
X4215301Y-21831722D01*
X4215301Y-21831722D02*
X4215301Y-21936484D01*
X4215301Y-21831722D02*
X4224825Y-21812674D01*
X4224825Y-21812674D02*
X4243872Y-21803150D01*
X4243872Y-21803150D02*
X4272444Y-21803150D01*
X4272444Y-21803150D02*
X4291491Y-21812674D01*
X4291491Y-21812674D02*
X4301015Y-21831722D01*
X4301015Y-21831722D02*
X4301015Y-21936484D01*
X4691491Y-21726960D02*
X4520063Y-21984103D01*
X4948634Y-21736484D02*
X4967682Y-21736484D01*
X4967682Y-21736484D02*
X4986729Y-21746008D01*
X4986729Y-21746008D02*
X4996253Y-21755531D01*
X4996253Y-21755531D02*
X5005777Y-21774579D01*
X5005777Y-21774579D02*
X5015301Y-21812674D01*
X5015301Y-21812674D02*
X5015301Y-21860293D01*
X5015301Y-21860293D02*
X5005777Y-21898389D01*
X5005777Y-21898389D02*
X4996253Y-21917436D01*
X4996253Y-21917436D02*
X4986729Y-21926960D01*
X4986729Y-21926960D02*
X4967682Y-21936484D01*
X4967682Y-21936484D02*
X4948634Y-21936484D01*
X4948634Y-21936484D02*
X4929587Y-21926960D01*
X4929587Y-21926960D02*
X4920063Y-21917436D01*
X4920063Y-21917436D02*
X4910539Y-21898389D01*
X4910539Y-21898389D02*
X4901015Y-21860293D01*
X4901015Y-21860293D02*
X4901015Y-21812674D01*
X4901015Y-21812674D02*
X4910539Y-21774579D01*
X4910539Y-21774579D02*
X4920063Y-21755531D01*
X4920063Y-21755531D02*
X4929587Y-21746008D01*
X4929587Y-21746008D02*
X4948634Y-21736484D01*
X5101015Y-21917436D02*
X5110539Y-21926960D01*
X5110539Y-21926960D02*
X5101015Y-21936484D01*
X5101015Y-21936484D02*
X5091491Y-21926960D01*
X5091491Y-21926960D02*
X5101015Y-21917436D01*
X5101015Y-21917436D02*
X5101015Y-21936484D01*
X5234348Y-21736484D02*
X5253396Y-21736484D01*
X5253396Y-21736484D02*
X5272444Y-21746008D01*
X5272444Y-21746008D02*
X5281968Y-21755531D01*
X5281968Y-21755531D02*
X5291491Y-21774579D01*
X5291491Y-21774579D02*
X5301015Y-21812674D01*
X5301015Y-21812674D02*
X5301015Y-21860293D01*
X5301015Y-21860293D02*
X5291491Y-21898389D01*
X5291491Y-21898389D02*
X5281968Y-21917436D01*
X5281968Y-21917436D02*
X5272444Y-21926960D01*
X5272444Y-21926960D02*
X5253396Y-21936484D01*
X5253396Y-21936484D02*
X5234348Y-21936484D01*
X5234348Y-21936484D02*
X5215301Y-21926960D01*
X5215301Y-21926960D02*
X5205777Y-21917436D01*
X5205777Y-21917436D02*
X5196253Y-21898389D01*
X5196253Y-21898389D02*
X5186729Y-21860293D01*
X5186729Y-21860293D02*
X5186729Y-21812674D01*
X5186729Y-21812674D02*
X5196253Y-21774579D01*
X5196253Y-21774579D02*
X5205777Y-21755531D01*
X5205777Y-21755531D02*
X5215301Y-21746008D01*
X5215301Y-21746008D02*
X5234348Y-21736484D01*
X5472444Y-21736484D02*
X5434348Y-21736484D01*
X5434348Y-21736484D02*
X5415301Y-21746008D01*
X5415301Y-21746008D02*
X5405777Y-21755531D01*
X5405777Y-21755531D02*
X5386729Y-21784103D01*
X5386729Y-21784103D02*
X5377206Y-21822198D01*
X5377206Y-21822198D02*
X5377206Y-21898389D01*
X5377206Y-21898389D02*
X5386729Y-21917436D01*
X5386729Y-21917436D02*
X5396253Y-21926960D01*
X5396253Y-21926960D02*
X5415301Y-21936484D01*
X5415301Y-21936484D02*
X5453396Y-21936484D01*
X5453396Y-21936484D02*
X5472444Y-21926960D01*
X5472444Y-21926960D02*
X5481968Y-21917436D01*
X5481968Y-21917436D02*
X5491491Y-21898389D01*
X5491491Y-21898389D02*
X5491491Y-21850770D01*
X5491491Y-21850770D02*
X5481968Y-21831722D01*
X5481968Y-21831722D02*
X5472444Y-21822198D01*
X5472444Y-21822198D02*
X5453396Y-21812674D01*
X5453396Y-21812674D02*
X5415301Y-21812674D01*
X5415301Y-21812674D02*
X5396253Y-21822198D01*
X5396253Y-21822198D02*
X5386729Y-21831722D01*
X5386729Y-21831722D02*
X5377206Y-21850770D01*
X5605777Y-21822198D02*
X5586729Y-21812674D01*
X5586729Y-21812674D02*
X5577206Y-21803150D01*
X5577206Y-21803150D02*
X5567682Y-21784103D01*
X5567682Y-21784103D02*
X5567682Y-21774579D01*
X5567682Y-21774579D02*
X5577206Y-21755531D01*
X5577206Y-21755531D02*
X5586729Y-21746008D01*
X5586729Y-21746008D02*
X5605777Y-21736484D01*
X5605777Y-21736484D02*
X5643872Y-21736484D01*
X5643872Y-21736484D02*
X5662920Y-21746008D01*
X5662920Y-21746008D02*
X5672444Y-21755531D01*
X5672444Y-21755531D02*
X5681967Y-21774579D01*
X5681967Y-21774579D02*
X5681967Y-21784103D01*
X5681967Y-21784103D02*
X5672444Y-21803150D01*
X5672444Y-21803150D02*
X5662920Y-21812674D01*
X5662920Y-21812674D02*
X5643872Y-21822198D01*
X5643872Y-21822198D02*
X5605777Y-21822198D01*
X5605777Y-21822198D02*
X5586729Y-21831722D01*
X5586729Y-21831722D02*
X5577206Y-21841246D01*
X5577206Y-21841246D02*
X5567682Y-21860293D01*
X5567682Y-21860293D02*
X5567682Y-21898389D01*
X5567682Y-21898389D02*
X5577206Y-21917436D01*
X5577206Y-21917436D02*
X5586729Y-21926960D01*
X5586729Y-21926960D02*
X5605777Y-21936484D01*
X5605777Y-21936484D02*
X5643872Y-21936484D01*
X5643872Y-21936484D02*
X5662920Y-21926960D01*
X5662920Y-21926960D02*
X5672444Y-21917436D01*
X5672444Y-21917436D02*
X5681967Y-21898389D01*
X5681967Y-21898389D02*
X5681967Y-21860293D01*
X5681967Y-21860293D02*
X5672444Y-21841246D01*
X5672444Y-21841246D02*
X5662920Y-21831722D01*
X5662920Y-21831722D02*
X5643872Y-21822198D01*
X5777206Y-21936484D02*
X5815301Y-21936484D01*
X5815301Y-21936484D02*
X5834348Y-21926960D01*
X5834348Y-21926960D02*
X5843872Y-21917436D01*
X5843872Y-21917436D02*
X5862920Y-21888865D01*
X5862920Y-21888865D02*
X5872444Y-21850770D01*
X5872444Y-21850770D02*
X5872444Y-21774579D01*
X5872444Y-21774579D02*
X5862920Y-21755531D01*
X5862920Y-21755531D02*
X5853396Y-21746008D01*
X5853396Y-21746008D02*
X5834348Y-21736484D01*
X5834348Y-21736484D02*
X5796253Y-21736484D01*
X5796253Y-21736484D02*
X5777206Y-21746008D01*
X5777206Y-21746008D02*
X5767682Y-21755531D01*
X5767682Y-21755531D02*
X5758158Y-21774579D01*
X5758158Y-21774579D02*
X5758158Y-21822198D01*
X5758158Y-21822198D02*
X5767682Y-21841246D01*
X5767682Y-21841246D02*
X5777206Y-21850770D01*
X5777206Y-21850770D02*
X5796253Y-21860293D01*
X5796253Y-21860293D02*
X5834348Y-21860293D01*
X5834348Y-21860293D02*
X5853396Y-21850770D01*
X5853396Y-21850770D02*
X5862920Y-21841246D01*
X5862920Y-21841246D02*
X5872444Y-21822198D01*
X5948634Y-21736484D02*
X5948634Y-21774579D01*
X6024825Y-21736484D02*
X6024825Y-21774579D01*
X6320063Y-22012674D02*
X6310539Y-22003150D01*
X6310539Y-22003150D02*
X6291491Y-21974579D01*
X6291491Y-21974579D02*
X6281968Y-21955531D01*
X6281968Y-21955531D02*
X6272444Y-21926960D01*
X6272444Y-21926960D02*
X6262920Y-21879341D01*
X6262920Y-21879341D02*
X6262920Y-21841246D01*
X6262920Y-21841246D02*
X6272444Y-21793627D01*
X6272444Y-21793627D02*
X6281968Y-21765055D01*
X6281968Y-21765055D02*
X6291491Y-21746008D01*
X6291491Y-21746008D02*
X6310539Y-21717436D01*
X6310539Y-21717436D02*
X6320063Y-21707912D01*
X6386729Y-21755531D02*
X6396253Y-21746008D01*
X6396253Y-21746008D02*
X6415301Y-21736484D01*
X6415301Y-21736484D02*
X6462920Y-21736484D01*
X6462920Y-21736484D02*
X6481968Y-21746008D01*
X6481968Y-21746008D02*
X6491491Y-21755531D01*
X6491491Y-21755531D02*
X6501015Y-21774579D01*
X6501015Y-21774579D02*
X6501015Y-21793627D01*
X6501015Y-21793627D02*
X6491491Y-21822198D01*
X6491491Y-21822198D02*
X6377206Y-21936484D01*
X6377206Y-21936484D02*
X6501015Y-21936484D01*
X6615301Y-21822198D02*
X6596253Y-21812674D01*
X6596253Y-21812674D02*
X6586729Y-21803150D01*
X6586729Y-21803150D02*
X6577206Y-21784103D01*
X6577206Y-21784103D02*
X6577206Y-21774579D01*
X6577206Y-21774579D02*
X6586729Y-21755531D01*
X6586729Y-21755531D02*
X6596253Y-21746008D01*
X6596253Y-21746008D02*
X6615301Y-21736484D01*
X6615301Y-21736484D02*
X6653396Y-21736484D01*
X6653396Y-21736484D02*
X6672444Y-21746008D01*
X6672444Y-21746008D02*
X6681968Y-21755531D01*
X6681968Y-21755531D02*
X6691491Y-21774579D01*
X6691491Y-21774579D02*
X6691491Y-21784103D01*
X6691491Y-21784103D02*
X6681968Y-21803150D01*
X6681968Y-21803150D02*
X6672444Y-21812674D01*
X6672444Y-21812674D02*
X6653396Y-21822198D01*
X6653396Y-21822198D02*
X6615301Y-21822198D01*
X6615301Y-21822198D02*
X6596253Y-21831722D01*
X6596253Y-21831722D02*
X6586729Y-21841246D01*
X6586729Y-21841246D02*
X6577206Y-21860293D01*
X6577206Y-21860293D02*
X6577206Y-21898389D01*
X6577206Y-21898389D02*
X6586729Y-21917436D01*
X6586729Y-21917436D02*
X6596253Y-21926960D01*
X6596253Y-21926960D02*
X6615301Y-21936484D01*
X6615301Y-21936484D02*
X6653396Y-21936484D01*
X6653396Y-21936484D02*
X6672444Y-21926960D01*
X6672444Y-21926960D02*
X6681968Y-21917436D01*
X6681968Y-21917436D02*
X6691491Y-21898389D01*
X6691491Y-21898389D02*
X6691491Y-21860293D01*
X6691491Y-21860293D02*
X6681968Y-21841246D01*
X6681968Y-21841246D02*
X6672444Y-21831722D01*
X6672444Y-21831722D02*
X6653396Y-21822198D01*
X6929587Y-21936484D02*
X6929587Y-21736484D01*
X7015301Y-21936484D02*
X7015301Y-21831722D01*
X7015301Y-21831722D02*
X7005777Y-21812674D01*
X7005777Y-21812674D02*
X6986730Y-21803150D01*
X6986730Y-21803150D02*
X6958158Y-21803150D01*
X6958158Y-21803150D02*
X6939110Y-21812674D01*
X6939110Y-21812674D02*
X6929587Y-21822198D01*
X7139110Y-21936484D02*
X7120063Y-21926960D01*
X7120063Y-21926960D02*
X7110539Y-21917436D01*
X7110539Y-21917436D02*
X7101015Y-21898389D01*
X7101015Y-21898389D02*
X7101015Y-21841246D01*
X7101015Y-21841246D02*
X7110539Y-21822198D01*
X7110539Y-21822198D02*
X7120063Y-21812674D01*
X7120063Y-21812674D02*
X7139110Y-21803150D01*
X7139110Y-21803150D02*
X7167682Y-21803150D01*
X7167682Y-21803150D02*
X7186730Y-21812674D01*
X7186730Y-21812674D02*
X7196253Y-21822198D01*
X7196253Y-21822198D02*
X7205777Y-21841246D01*
X7205777Y-21841246D02*
X7205777Y-21898389D01*
X7205777Y-21898389D02*
X7196253Y-21917436D01*
X7196253Y-21917436D02*
X7186730Y-21926960D01*
X7186730Y-21926960D02*
X7167682Y-21936484D01*
X7167682Y-21936484D02*
X7139110Y-21936484D01*
X7320063Y-21936484D02*
X7301015Y-21926960D01*
X7301015Y-21926960D02*
X7291491Y-21907912D01*
X7291491Y-21907912D02*
X7291491Y-21736484D01*
X7472444Y-21926960D02*
X7453396Y-21936484D01*
X7453396Y-21936484D02*
X7415301Y-21936484D01*
X7415301Y-21936484D02*
X7396253Y-21926960D01*
X7396253Y-21926960D02*
X7386730Y-21907912D01*
X7386730Y-21907912D02*
X7386730Y-21831722D01*
X7386730Y-21831722D02*
X7396253Y-21812674D01*
X7396253Y-21812674D02*
X7415301Y-21803150D01*
X7415301Y-21803150D02*
X7453396Y-21803150D01*
X7453396Y-21803150D02*
X7472444Y-21812674D01*
X7472444Y-21812674D02*
X7481968Y-21831722D01*
X7481968Y-21831722D02*
X7481968Y-21850770D01*
X7481968Y-21850770D02*
X7386730Y-21869817D01*
X7558158Y-21926960D02*
X7577206Y-21936484D01*
X7577206Y-21936484D02*
X7615301Y-21936484D01*
X7615301Y-21936484D02*
X7634349Y-21926960D01*
X7634349Y-21926960D02*
X7643872Y-21907912D01*
X7643872Y-21907912D02*
X7643872Y-21898389D01*
X7643872Y-21898389D02*
X7634349Y-21879341D01*
X7634349Y-21879341D02*
X7615301Y-21869817D01*
X7615301Y-21869817D02*
X7586730Y-21869817D01*
X7586730Y-21869817D02*
X7567682Y-21860293D01*
X7567682Y-21860293D02*
X7558158Y-21841246D01*
X7558158Y-21841246D02*
X7558158Y-21831722D01*
X7558158Y-21831722D02*
X7567682Y-21812674D01*
X7567682Y-21812674D02*
X7586730Y-21803150D01*
X7586730Y-21803150D02*
X7615301Y-21803150D01*
X7615301Y-21803150D02*
X7634349Y-21812674D01*
X7710539Y-22012674D02*
X7720063Y-22003150D01*
X7720063Y-22003150D02*
X7739111Y-21974579D01*
X7739111Y-21974579D02*
X7748634Y-21955531D01*
X7748634Y-21955531D02*
X7758158Y-21926960D01*
X7758158Y-21926960D02*
X7767682Y-21879341D01*
X7767682Y-21879341D02*
X7767682Y-21841246D01*
X7767682Y-21841246D02*
X7758158Y-21793627D01*
X7758158Y-21793627D02*
X7748634Y-21765055D01*
X7748634Y-21765055D02*
X7739111Y-21746008D01*
X7739111Y-21746008D02*
X7720063Y-21717436D01*
X7720063Y-21717436D02*
X7710539Y-21707912D01*
X8072444Y-22012674D02*
X8062920Y-22003150D01*
X8062920Y-22003150D02*
X8043872Y-21974579D01*
X8043872Y-21974579D02*
X8034349Y-21955531D01*
X8034349Y-21955531D02*
X8024825Y-21926960D01*
X8024825Y-21926960D02*
X8015301Y-21879341D01*
X8015301Y-21879341D02*
X8015301Y-21841246D01*
X8015301Y-21841246D02*
X8024825Y-21793627D01*
X8024825Y-21793627D02*
X8034349Y-21765055D01*
X8034349Y-21765055D02*
X8043872Y-21746008D01*
X8043872Y-21746008D02*
X8062920Y-21717436D01*
X8062920Y-21717436D02*
X8072444Y-21707912D01*
X8148634Y-21803150D02*
X8148634Y-21936484D01*
X8148634Y-21822198D02*
X8158158Y-21812674D01*
X8158158Y-21812674D02*
X8177206Y-21803150D01*
X8177206Y-21803150D02*
X8205777Y-21803150D01*
X8205777Y-21803150D02*
X8224825Y-21812674D01*
X8224825Y-21812674D02*
X8234349Y-21831722D01*
X8234349Y-21831722D02*
X8234349Y-21936484D01*
X8358158Y-21936484D02*
X8339111Y-21926960D01*
X8339111Y-21926960D02*
X8329587Y-21917436D01*
X8329587Y-21917436D02*
X8320063Y-21898389D01*
X8320063Y-21898389D02*
X8320063Y-21841246D01*
X8320063Y-21841246D02*
X8329587Y-21822198D01*
X8329587Y-21822198D02*
X8339111Y-21812674D01*
X8339111Y-21812674D02*
X8358158Y-21803150D01*
X8358158Y-21803150D02*
X8386730Y-21803150D01*
X8386730Y-21803150D02*
X8405777Y-21812674D01*
X8405777Y-21812674D02*
X8415301Y-21822198D01*
X8415301Y-21822198D02*
X8424825Y-21841246D01*
X8424825Y-21841246D02*
X8424825Y-21898389D01*
X8424825Y-21898389D02*
X8415301Y-21917436D01*
X8415301Y-21917436D02*
X8405777Y-21926960D01*
X8405777Y-21926960D02*
X8386730Y-21936484D01*
X8386730Y-21936484D02*
X8358158Y-21936484D01*
X8481968Y-21803150D02*
X8558158Y-21803150D01*
X8510539Y-21736484D02*
X8510539Y-21907912D01*
X8510539Y-21907912D02*
X8520063Y-21926960D01*
X8520063Y-21926960D02*
X8539111Y-21936484D01*
X8539111Y-21936484D02*
X8558158Y-21936484D01*
X8777206Y-21803150D02*
X8777206Y-22003150D01*
X8777206Y-21812674D02*
X8796254Y-21803150D01*
X8796254Y-21803150D02*
X8834349Y-21803150D01*
X8834349Y-21803150D02*
X8853396Y-21812674D01*
X8853396Y-21812674D02*
X8862920Y-21822198D01*
X8862920Y-21822198D02*
X8872444Y-21841246D01*
X8872444Y-21841246D02*
X8872444Y-21898389D01*
X8872444Y-21898389D02*
X8862920Y-21917436D01*
X8862920Y-21917436D02*
X8853396Y-21926960D01*
X8853396Y-21926960D02*
X8834349Y-21936484D01*
X8834349Y-21936484D02*
X8796254Y-21936484D01*
X8796254Y-21936484D02*
X8777206Y-21926960D01*
X8986730Y-21936484D02*
X8967682Y-21926960D01*
X8967682Y-21926960D02*
X8958158Y-21907912D01*
X8958158Y-21907912D02*
X8958158Y-21736484D01*
X9148635Y-21936484D02*
X9148635Y-21831722D01*
X9148635Y-21831722D02*
X9139111Y-21812674D01*
X9139111Y-21812674D02*
X9120063Y-21803150D01*
X9120063Y-21803150D02*
X9081968Y-21803150D01*
X9081968Y-21803150D02*
X9062920Y-21812674D01*
X9148635Y-21926960D02*
X9129587Y-21936484D01*
X9129587Y-21936484D02*
X9081968Y-21936484D01*
X9081968Y-21936484D02*
X9062920Y-21926960D01*
X9062920Y-21926960D02*
X9053396Y-21907912D01*
X9053396Y-21907912D02*
X9053396Y-21888865D01*
X9053396Y-21888865D02*
X9062920Y-21869817D01*
X9062920Y-21869817D02*
X9081968Y-21860293D01*
X9081968Y-21860293D02*
X9129587Y-21860293D01*
X9129587Y-21860293D02*
X9148635Y-21850770D01*
X9215301Y-21803150D02*
X9291492Y-21803150D01*
X9243873Y-21736484D02*
X9243873Y-21907912D01*
X9243873Y-21907912D02*
X9253396Y-21926960D01*
X9253396Y-21926960D02*
X9272444Y-21936484D01*
X9272444Y-21936484D02*
X9291492Y-21936484D01*
X9434349Y-21926960D02*
X9415301Y-21936484D01*
X9415301Y-21936484D02*
X9377206Y-21936484D01*
X9377206Y-21936484D02*
X9358158Y-21926960D01*
X9358158Y-21926960D02*
X9348635Y-21907912D01*
X9348635Y-21907912D02*
X9348635Y-21831722D01*
X9348635Y-21831722D02*
X9358158Y-21812674D01*
X9358158Y-21812674D02*
X9377206Y-21803150D01*
X9377206Y-21803150D02*
X9415301Y-21803150D01*
X9415301Y-21803150D02*
X9434349Y-21812674D01*
X9434349Y-21812674D02*
X9443873Y-21831722D01*
X9443873Y-21831722D02*
X9443873Y-21850770D01*
X9443873Y-21850770D02*
X9348635Y-21869817D01*
X9615301Y-21936484D02*
X9615301Y-21736484D01*
X9615301Y-21926960D02*
X9596254Y-21936484D01*
X9596254Y-21936484D02*
X9558158Y-21936484D01*
X9558158Y-21936484D02*
X9539111Y-21926960D01*
X9539111Y-21926960D02*
X9529587Y-21917436D01*
X9529587Y-21917436D02*
X9520063Y-21898389D01*
X9520063Y-21898389D02*
X9520063Y-21841246D01*
X9520063Y-21841246D02*
X9529587Y-21822198D01*
X9529587Y-21822198D02*
X9539111Y-21812674D01*
X9539111Y-21812674D02*
X9558158Y-21803150D01*
X9558158Y-21803150D02*
X9596254Y-21803150D01*
X9596254Y-21803150D02*
X9615301Y-21812674D01*
X9691492Y-22012674D02*
X9701016Y-22003150D01*
X9701016Y-22003150D02*
X9720063Y-21974579D01*
X9720063Y-21974579D02*
X9729587Y-21955531D01*
X9729587Y-21955531D02*
X9739111Y-21926960D01*
X9739111Y-21926960D02*
X9748635Y-21879341D01*
X9748635Y-21879341D02*
X9748635Y-21841246D01*
X9748635Y-21841246D02*
X9739111Y-21793627D01*
X9739111Y-21793627D02*
X9729587Y-21765055D01*
X9729587Y-21765055D02*
X9720063Y-21746008D01*
X9720063Y-21746008D02*
X9701016Y-21717436D01*
X9701016Y-21717436D02*
X9691492Y-21707912D01*
X2745000Y-22140000D02*
G75*
G03*
X2545000Y-22140000I-100000J0D01*
G01*
X2545000Y-22140000D02*
G75*
G03*
X2745000Y-22140000I100000J0D01*
G01*
X2986729Y-22031484D02*
X3110539Y-22031484D01*
X3110539Y-22031484D02*
X3043872Y-22107674D01*
X3043872Y-22107674D02*
X3072443Y-22107674D01*
X3072443Y-22107674D02*
X3091491Y-22117198D01*
X3091491Y-22117198D02*
X3101015Y-22126722D01*
X3101015Y-22126722D02*
X3110539Y-22145770D01*
X3110539Y-22145770D02*
X3110539Y-22193389D01*
X3110539Y-22193389D02*
X3101015Y-22212436D01*
X3101015Y-22212436D02*
X3091491Y-22221960D01*
X3091491Y-22221960D02*
X3072443Y-22231484D01*
X3072443Y-22231484D02*
X3015301Y-22231484D01*
X3015301Y-22231484D02*
X2996253Y-22221960D01*
X2996253Y-22221960D02*
X2986729Y-22212436D01*
X3196253Y-22212436D02*
X3205777Y-22221960D01*
X3205777Y-22221960D02*
X3196253Y-22231484D01*
X3196253Y-22231484D02*
X3186729Y-22221960D01*
X3186729Y-22221960D02*
X3196253Y-22212436D01*
X3196253Y-22212436D02*
X3196253Y-22231484D01*
X3301015Y-22231484D02*
X3339110Y-22231484D01*
X3339110Y-22231484D02*
X3358158Y-22221960D01*
X3358158Y-22221960D02*
X3367682Y-22212436D01*
X3367682Y-22212436D02*
X3386729Y-22183865D01*
X3386729Y-22183865D02*
X3396253Y-22145770D01*
X3396253Y-22145770D02*
X3396253Y-22069579D01*
X3396253Y-22069579D02*
X3386729Y-22050531D01*
X3386729Y-22050531D02*
X3377205Y-22041008D01*
X3377205Y-22041008D02*
X3358158Y-22031484D01*
X3358158Y-22031484D02*
X3320062Y-22031484D01*
X3320062Y-22031484D02*
X3301015Y-22041008D01*
X3301015Y-22041008D02*
X3291491Y-22050531D01*
X3291491Y-22050531D02*
X3281967Y-22069579D01*
X3281967Y-22069579D02*
X3281967Y-22117198D01*
X3281967Y-22117198D02*
X3291491Y-22136246D01*
X3291491Y-22136246D02*
X3301015Y-22145770D01*
X3301015Y-22145770D02*
X3320062Y-22155293D01*
X3320062Y-22155293D02*
X3358158Y-22155293D01*
X3358158Y-22155293D02*
X3377205Y-22145770D01*
X3377205Y-22145770D02*
X3386729Y-22136246D01*
X3386729Y-22136246D02*
X3396253Y-22117198D01*
X3510539Y-22117198D02*
X3491491Y-22107674D01*
X3491491Y-22107674D02*
X3481967Y-22098150D01*
X3481967Y-22098150D02*
X3472443Y-22079103D01*
X3472443Y-22079103D02*
X3472443Y-22069579D01*
X3472443Y-22069579D02*
X3481967Y-22050531D01*
X3481967Y-22050531D02*
X3491491Y-22041008D01*
X3491491Y-22041008D02*
X3510539Y-22031484D01*
X3510539Y-22031484D02*
X3548634Y-22031484D01*
X3548634Y-22031484D02*
X3567682Y-22041008D01*
X3567682Y-22041008D02*
X3577205Y-22050531D01*
X3577205Y-22050531D02*
X3586729Y-22069579D01*
X3586729Y-22069579D02*
X3586729Y-22079103D01*
X3586729Y-22079103D02*
X3577205Y-22098150D01*
X3577205Y-22098150D02*
X3567682Y-22107674D01*
X3567682Y-22107674D02*
X3548634Y-22117198D01*
X3548634Y-22117198D02*
X3510539Y-22117198D01*
X3510539Y-22117198D02*
X3491491Y-22126722D01*
X3491491Y-22126722D02*
X3481967Y-22136246D01*
X3481967Y-22136246D02*
X3472443Y-22155293D01*
X3472443Y-22155293D02*
X3472443Y-22193389D01*
X3472443Y-22193389D02*
X3481967Y-22212436D01*
X3481967Y-22212436D02*
X3491491Y-22221960D01*
X3491491Y-22221960D02*
X3510539Y-22231484D01*
X3510539Y-22231484D02*
X3548634Y-22231484D01*
X3548634Y-22231484D02*
X3567682Y-22221960D01*
X3567682Y-22221960D02*
X3577205Y-22212436D01*
X3577205Y-22212436D02*
X3586729Y-22193389D01*
X3586729Y-22193389D02*
X3586729Y-22155293D01*
X3586729Y-22155293D02*
X3577205Y-22136246D01*
X3577205Y-22136246D02*
X3567682Y-22126722D01*
X3567682Y-22126722D02*
X3548634Y-22117198D01*
X3701015Y-22117198D02*
X3681967Y-22107674D01*
X3681967Y-22107674D02*
X3672443Y-22098150D01*
X3672443Y-22098150D02*
X3662920Y-22079103D01*
X3662920Y-22079103D02*
X3662920Y-22069579D01*
X3662920Y-22069579D02*
X3672443Y-22050531D01*
X3672443Y-22050531D02*
X3681967Y-22041008D01*
X3681967Y-22041008D02*
X3701015Y-22031484D01*
X3701015Y-22031484D02*
X3739110Y-22031484D01*
X3739110Y-22031484D02*
X3758158Y-22041008D01*
X3758158Y-22041008D02*
X3767682Y-22050531D01*
X3767682Y-22050531D02*
X3777205Y-22069579D01*
X3777205Y-22069579D02*
X3777205Y-22079103D01*
X3777205Y-22079103D02*
X3767682Y-22098150D01*
X3767682Y-22098150D02*
X3758158Y-22107674D01*
X3758158Y-22107674D02*
X3739110Y-22117198D01*
X3739110Y-22117198D02*
X3701015Y-22117198D01*
X3701015Y-22117198D02*
X3681967Y-22126722D01*
X3681967Y-22126722D02*
X3672443Y-22136246D01*
X3672443Y-22136246D02*
X3662920Y-22155293D01*
X3662920Y-22155293D02*
X3662920Y-22193389D01*
X3662920Y-22193389D02*
X3672443Y-22212436D01*
X3672443Y-22212436D02*
X3681967Y-22221960D01*
X3681967Y-22221960D02*
X3701015Y-22231484D01*
X3701015Y-22231484D02*
X3739110Y-22231484D01*
X3739110Y-22231484D02*
X3758158Y-22221960D01*
X3758158Y-22221960D02*
X3767682Y-22212436D01*
X3767682Y-22212436D02*
X3777205Y-22193389D01*
X3777205Y-22193389D02*
X3777205Y-22155293D01*
X3777205Y-22155293D02*
X3767682Y-22136246D01*
X3767682Y-22136246D02*
X3758158Y-22126722D01*
X3758158Y-22126722D02*
X3739110Y-22117198D01*
X3862920Y-22231484D02*
X3862920Y-22098150D01*
X3862920Y-22117198D02*
X3872443Y-22107674D01*
X3872443Y-22107674D02*
X3891491Y-22098150D01*
X3891491Y-22098150D02*
X3920063Y-22098150D01*
X3920063Y-22098150D02*
X3939110Y-22107674D01*
X3939110Y-22107674D02*
X3948634Y-22126722D01*
X3948634Y-22126722D02*
X3948634Y-22231484D01*
X3948634Y-22126722D02*
X3958158Y-22107674D01*
X3958158Y-22107674D02*
X3977205Y-22098150D01*
X3977205Y-22098150D02*
X4005777Y-22098150D01*
X4005777Y-22098150D02*
X4024824Y-22107674D01*
X4024824Y-22107674D02*
X4034348Y-22126722D01*
X4034348Y-22126722D02*
X4034348Y-22231484D01*
X4129586Y-22231484D02*
X4129586Y-22098150D01*
X4129586Y-22117198D02*
X4139110Y-22107674D01*
X4139110Y-22107674D02*
X4158158Y-22098150D01*
X4158158Y-22098150D02*
X4186729Y-22098150D01*
X4186729Y-22098150D02*
X4205777Y-22107674D01*
X4205777Y-22107674D02*
X4215301Y-22126722D01*
X4215301Y-22126722D02*
X4215301Y-22231484D01*
X4215301Y-22126722D02*
X4224825Y-22107674D01*
X4224825Y-22107674D02*
X4243872Y-22098150D01*
X4243872Y-22098150D02*
X4272444Y-22098150D01*
X4272444Y-22098150D02*
X4291491Y-22107674D01*
X4291491Y-22107674D02*
X4301015Y-22126722D01*
X4301015Y-22126722D02*
X4301015Y-22231484D01*
X4691491Y-22021960D02*
X4520063Y-22279103D01*
X4948634Y-22031484D02*
X4967682Y-22031484D01*
X4967682Y-22031484D02*
X4986729Y-22041008D01*
X4986729Y-22041008D02*
X4996253Y-22050531D01*
X4996253Y-22050531D02*
X5005777Y-22069579D01*
X5005777Y-22069579D02*
X5015301Y-22107674D01*
X5015301Y-22107674D02*
X5015301Y-22155293D01*
X5015301Y-22155293D02*
X5005777Y-22193389D01*
X5005777Y-22193389D02*
X4996253Y-22212436D01*
X4996253Y-22212436D02*
X4986729Y-22221960D01*
X4986729Y-22221960D02*
X4967682Y-22231484D01*
X4967682Y-22231484D02*
X4948634Y-22231484D01*
X4948634Y-22231484D02*
X4929587Y-22221960D01*
X4929587Y-22221960D02*
X4920063Y-22212436D01*
X4920063Y-22212436D02*
X4910539Y-22193389D01*
X4910539Y-22193389D02*
X4901015Y-22155293D01*
X4901015Y-22155293D02*
X4901015Y-22107674D01*
X4901015Y-22107674D02*
X4910539Y-22069579D01*
X4910539Y-22069579D02*
X4920063Y-22050531D01*
X4920063Y-22050531D02*
X4929587Y-22041008D01*
X4929587Y-22041008D02*
X4948634Y-22031484D01*
X5101015Y-22212436D02*
X5110539Y-22221960D01*
X5110539Y-22221960D02*
X5101015Y-22231484D01*
X5101015Y-22231484D02*
X5091491Y-22221960D01*
X5091491Y-22221960D02*
X5101015Y-22212436D01*
X5101015Y-22212436D02*
X5101015Y-22231484D01*
X5301015Y-22231484D02*
X5186729Y-22231484D01*
X5243872Y-22231484D02*
X5243872Y-22031484D01*
X5243872Y-22031484D02*
X5224825Y-22060055D01*
X5224825Y-22060055D02*
X5205777Y-22079103D01*
X5205777Y-22079103D02*
X5186729Y-22088627D01*
X5481968Y-22031484D02*
X5386729Y-22031484D01*
X5386729Y-22031484D02*
X5377206Y-22126722D01*
X5377206Y-22126722D02*
X5386729Y-22117198D01*
X5386729Y-22117198D02*
X5405777Y-22107674D01*
X5405777Y-22107674D02*
X5453396Y-22107674D01*
X5453396Y-22107674D02*
X5472444Y-22117198D01*
X5472444Y-22117198D02*
X5481968Y-22126722D01*
X5481968Y-22126722D02*
X5491491Y-22145770D01*
X5491491Y-22145770D02*
X5491491Y-22193389D01*
X5491491Y-22193389D02*
X5481968Y-22212436D01*
X5481968Y-22212436D02*
X5472444Y-22221960D01*
X5472444Y-22221960D02*
X5453396Y-22231484D01*
X5453396Y-22231484D02*
X5405777Y-22231484D01*
X5405777Y-22231484D02*
X5386729Y-22221960D01*
X5386729Y-22221960D02*
X5377206Y-22212436D01*
X5558158Y-22031484D02*
X5691491Y-22031484D01*
X5691491Y-22031484D02*
X5605777Y-22231484D01*
X5805777Y-22031484D02*
X5824825Y-22031484D01*
X5824825Y-22031484D02*
X5843872Y-22041008D01*
X5843872Y-22041008D02*
X5853396Y-22050531D01*
X5853396Y-22050531D02*
X5862920Y-22069579D01*
X5862920Y-22069579D02*
X5872444Y-22107674D01*
X5872444Y-22107674D02*
X5872444Y-22155293D01*
X5872444Y-22155293D02*
X5862920Y-22193389D01*
X5862920Y-22193389D02*
X5853396Y-22212436D01*
X5853396Y-22212436D02*
X5843872Y-22221960D01*
X5843872Y-22221960D02*
X5824825Y-22231484D01*
X5824825Y-22231484D02*
X5805777Y-22231484D01*
X5805777Y-22231484D02*
X5786729Y-22221960D01*
X5786729Y-22221960D02*
X5777206Y-22212436D01*
X5777206Y-22212436D02*
X5767682Y-22193389D01*
X5767682Y-22193389D02*
X5758158Y-22155293D01*
X5758158Y-22155293D02*
X5758158Y-22107674D01*
X5758158Y-22107674D02*
X5767682Y-22069579D01*
X5767682Y-22069579D02*
X5777206Y-22050531D01*
X5777206Y-22050531D02*
X5786729Y-22041008D01*
X5786729Y-22041008D02*
X5805777Y-22031484D01*
X5948634Y-22031484D02*
X5948634Y-22069579D01*
X6024825Y-22031484D02*
X6024825Y-22069579D01*
X6320063Y-22307674D02*
X6310539Y-22298150D01*
X6310539Y-22298150D02*
X6291491Y-22269579D01*
X6291491Y-22269579D02*
X6281968Y-22250531D01*
X6281968Y-22250531D02*
X6272444Y-22221960D01*
X6272444Y-22221960D02*
X6262920Y-22174341D01*
X6262920Y-22174341D02*
X6262920Y-22136246D01*
X6262920Y-22136246D02*
X6272444Y-22088627D01*
X6272444Y-22088627D02*
X6281968Y-22060055D01*
X6281968Y-22060055D02*
X6291491Y-22041008D01*
X6291491Y-22041008D02*
X6310539Y-22012436D01*
X6310539Y-22012436D02*
X6320063Y-22002912D01*
X6501015Y-22231484D02*
X6386729Y-22231484D01*
X6443872Y-22231484D02*
X6443872Y-22031484D01*
X6443872Y-22031484D02*
X6424825Y-22060055D01*
X6424825Y-22060055D02*
X6405777Y-22079103D01*
X6405777Y-22079103D02*
X6386729Y-22088627D01*
X6672444Y-22098150D02*
X6672444Y-22231484D01*
X6624825Y-22021960D02*
X6577206Y-22164817D01*
X6577206Y-22164817D02*
X6701015Y-22164817D01*
X6929587Y-22231484D02*
X6929587Y-22031484D01*
X7015301Y-22231484D02*
X7015301Y-22126722D01*
X7015301Y-22126722D02*
X7005777Y-22107674D01*
X7005777Y-22107674D02*
X6986730Y-22098150D01*
X6986730Y-22098150D02*
X6958158Y-22098150D01*
X6958158Y-22098150D02*
X6939110Y-22107674D01*
X6939110Y-22107674D02*
X6929587Y-22117198D01*
X7139110Y-22231484D02*
X7120063Y-22221960D01*
X7120063Y-22221960D02*
X7110539Y-22212436D01*
X7110539Y-22212436D02*
X7101015Y-22193389D01*
X7101015Y-22193389D02*
X7101015Y-22136246D01*
X7101015Y-22136246D02*
X7110539Y-22117198D01*
X7110539Y-22117198D02*
X7120063Y-22107674D01*
X7120063Y-22107674D02*
X7139110Y-22098150D01*
X7139110Y-22098150D02*
X7167682Y-22098150D01*
X7167682Y-22098150D02*
X7186730Y-22107674D01*
X7186730Y-22107674D02*
X7196253Y-22117198D01*
X7196253Y-22117198D02*
X7205777Y-22136246D01*
X7205777Y-22136246D02*
X7205777Y-22193389D01*
X7205777Y-22193389D02*
X7196253Y-22212436D01*
X7196253Y-22212436D02*
X7186730Y-22221960D01*
X7186730Y-22221960D02*
X7167682Y-22231484D01*
X7167682Y-22231484D02*
X7139110Y-22231484D01*
X7320063Y-22231484D02*
X7301015Y-22221960D01*
X7301015Y-22221960D02*
X7291491Y-22202912D01*
X7291491Y-22202912D02*
X7291491Y-22031484D01*
X7472444Y-22221960D02*
X7453396Y-22231484D01*
X7453396Y-22231484D02*
X7415301Y-22231484D01*
X7415301Y-22231484D02*
X7396253Y-22221960D01*
X7396253Y-22221960D02*
X7386730Y-22202912D01*
X7386730Y-22202912D02*
X7386730Y-22126722D01*
X7386730Y-22126722D02*
X7396253Y-22107674D01*
X7396253Y-22107674D02*
X7415301Y-22098150D01*
X7415301Y-22098150D02*
X7453396Y-22098150D01*
X7453396Y-22098150D02*
X7472444Y-22107674D01*
X7472444Y-22107674D02*
X7481968Y-22126722D01*
X7481968Y-22126722D02*
X7481968Y-22145770D01*
X7481968Y-22145770D02*
X7386730Y-22164817D01*
X7558158Y-22221960D02*
X7577206Y-22231484D01*
X7577206Y-22231484D02*
X7615301Y-22231484D01*
X7615301Y-22231484D02*
X7634349Y-22221960D01*
X7634349Y-22221960D02*
X7643872Y-22202912D01*
X7643872Y-22202912D02*
X7643872Y-22193389D01*
X7643872Y-22193389D02*
X7634349Y-22174341D01*
X7634349Y-22174341D02*
X7615301Y-22164817D01*
X7615301Y-22164817D02*
X7586730Y-22164817D01*
X7586730Y-22164817D02*
X7567682Y-22155293D01*
X7567682Y-22155293D02*
X7558158Y-22136246D01*
X7558158Y-22136246D02*
X7558158Y-22126722D01*
X7558158Y-22126722D02*
X7567682Y-22107674D01*
X7567682Y-22107674D02*
X7586730Y-22098150D01*
X7586730Y-22098150D02*
X7615301Y-22098150D01*
X7615301Y-22098150D02*
X7634349Y-22107674D01*
X7710539Y-22307674D02*
X7720063Y-22298150D01*
X7720063Y-22298150D02*
X7739111Y-22269579D01*
X7739111Y-22269579D02*
X7748634Y-22250531D01*
X7748634Y-22250531D02*
X7758158Y-22221960D01*
X7758158Y-22221960D02*
X7767682Y-22174341D01*
X7767682Y-22174341D02*
X7767682Y-22136246D01*
X7767682Y-22136246D02*
X7758158Y-22088627D01*
X7758158Y-22088627D02*
X7748634Y-22060055D01*
X7748634Y-22060055D02*
X7739111Y-22041008D01*
X7739111Y-22041008D02*
X7720063Y-22012436D01*
X7720063Y-22012436D02*
X7710539Y-22002912D01*
X8072444Y-22307674D02*
X8062920Y-22298150D01*
X8062920Y-22298150D02*
X8043872Y-22269579D01*
X8043872Y-22269579D02*
X8034349Y-22250531D01*
X8034349Y-22250531D02*
X8024825Y-22221960D01*
X8024825Y-22221960D02*
X8015301Y-22174341D01*
X8015301Y-22174341D02*
X8015301Y-22136246D01*
X8015301Y-22136246D02*
X8024825Y-22088627D01*
X8024825Y-22088627D02*
X8034349Y-22060055D01*
X8034349Y-22060055D02*
X8043872Y-22041008D01*
X8043872Y-22041008D02*
X8062920Y-22012436D01*
X8062920Y-22012436D02*
X8072444Y-22002912D01*
X8148634Y-22098150D02*
X8148634Y-22231484D01*
X8148634Y-22117198D02*
X8158158Y-22107674D01*
X8158158Y-22107674D02*
X8177206Y-22098150D01*
X8177206Y-22098150D02*
X8205777Y-22098150D01*
X8205777Y-22098150D02*
X8224825Y-22107674D01*
X8224825Y-22107674D02*
X8234349Y-22126722D01*
X8234349Y-22126722D02*
X8234349Y-22231484D01*
X8358158Y-22231484D02*
X8339111Y-22221960D01*
X8339111Y-22221960D02*
X8329587Y-22212436D01*
X8329587Y-22212436D02*
X8320063Y-22193389D01*
X8320063Y-22193389D02*
X8320063Y-22136246D01*
X8320063Y-22136246D02*
X8329587Y-22117198D01*
X8329587Y-22117198D02*
X8339111Y-22107674D01*
X8339111Y-22107674D02*
X8358158Y-22098150D01*
X8358158Y-22098150D02*
X8386730Y-22098150D01*
X8386730Y-22098150D02*
X8405777Y-22107674D01*
X8405777Y-22107674D02*
X8415301Y-22117198D01*
X8415301Y-22117198D02*
X8424825Y-22136246D01*
X8424825Y-22136246D02*
X8424825Y-22193389D01*
X8424825Y-22193389D02*
X8415301Y-22212436D01*
X8415301Y-22212436D02*
X8405777Y-22221960D01*
X8405777Y-22221960D02*
X8386730Y-22231484D01*
X8386730Y-22231484D02*
X8358158Y-22231484D01*
X8481968Y-22098150D02*
X8558158Y-22098150D01*
X8510539Y-22031484D02*
X8510539Y-22202912D01*
X8510539Y-22202912D02*
X8520063Y-22221960D01*
X8520063Y-22221960D02*
X8539111Y-22231484D01*
X8539111Y-22231484D02*
X8558158Y-22231484D01*
X8777206Y-22098150D02*
X8777206Y-22298150D01*
X8777206Y-22107674D02*
X8796254Y-22098150D01*
X8796254Y-22098150D02*
X8834349Y-22098150D01*
X8834349Y-22098150D02*
X8853396Y-22107674D01*
X8853396Y-22107674D02*
X8862920Y-22117198D01*
X8862920Y-22117198D02*
X8872444Y-22136246D01*
X8872444Y-22136246D02*
X8872444Y-22193389D01*
X8872444Y-22193389D02*
X8862920Y-22212436D01*
X8862920Y-22212436D02*
X8853396Y-22221960D01*
X8853396Y-22221960D02*
X8834349Y-22231484D01*
X8834349Y-22231484D02*
X8796254Y-22231484D01*
X8796254Y-22231484D02*
X8777206Y-22221960D01*
X8986730Y-22231484D02*
X8967682Y-22221960D01*
X8967682Y-22221960D02*
X8958158Y-22202912D01*
X8958158Y-22202912D02*
X8958158Y-22031484D01*
X9148635Y-22231484D02*
X9148635Y-22126722D01*
X9148635Y-22126722D02*
X9139111Y-22107674D01*
X9139111Y-22107674D02*
X9120063Y-22098150D01*
X9120063Y-22098150D02*
X9081968Y-22098150D01*
X9081968Y-22098150D02*
X9062920Y-22107674D01*
X9148635Y-22221960D02*
X9129587Y-22231484D01*
X9129587Y-22231484D02*
X9081968Y-22231484D01*
X9081968Y-22231484D02*
X9062920Y-22221960D01*
X9062920Y-22221960D02*
X9053396Y-22202912D01*
X9053396Y-22202912D02*
X9053396Y-22183865D01*
X9053396Y-22183865D02*
X9062920Y-22164817D01*
X9062920Y-22164817D02*
X9081968Y-22155293D01*
X9081968Y-22155293D02*
X9129587Y-22155293D01*
X9129587Y-22155293D02*
X9148635Y-22145770D01*
X9215301Y-22098150D02*
X9291492Y-22098150D01*
X9243873Y-22031484D02*
X9243873Y-22202912D01*
X9243873Y-22202912D02*
X9253396Y-22221960D01*
X9253396Y-22221960D02*
X9272444Y-22231484D01*
X9272444Y-22231484D02*
X9291492Y-22231484D01*
X9434349Y-22221960D02*
X9415301Y-22231484D01*
X9415301Y-22231484D02*
X9377206Y-22231484D01*
X9377206Y-22231484D02*
X9358158Y-22221960D01*
X9358158Y-22221960D02*
X9348635Y-22202912D01*
X9348635Y-22202912D02*
X9348635Y-22126722D01*
X9348635Y-22126722D02*
X9358158Y-22107674D01*
X9358158Y-22107674D02*
X9377206Y-22098150D01*
X9377206Y-22098150D02*
X9415301Y-22098150D01*
X9415301Y-22098150D02*
X9434349Y-22107674D01*
X9434349Y-22107674D02*
X9443873Y-22126722D01*
X9443873Y-22126722D02*
X9443873Y-22145770D01*
X9443873Y-22145770D02*
X9348635Y-22164817D01*
X9615301Y-22231484D02*
X9615301Y-22031484D01*
X9615301Y-22221960D02*
X9596254Y-22231484D01*
X9596254Y-22231484D02*
X9558158Y-22231484D01*
X9558158Y-22231484D02*
X9539111Y-22221960D01*
X9539111Y-22221960D02*
X9529587Y-22212436D01*
X9529587Y-22212436D02*
X9520063Y-22193389D01*
X9520063Y-22193389D02*
X9520063Y-22136246D01*
X9520063Y-22136246D02*
X9529587Y-22117198D01*
X9529587Y-22117198D02*
X9539111Y-22107674D01*
X9539111Y-22107674D02*
X9558158Y-22098150D01*
X9558158Y-22098150D02*
X9596254Y-22098150D01*
X9596254Y-22098150D02*
X9615301Y-22107674D01*
X9691492Y-22307674D02*
X9701016Y-22298150D01*
X9701016Y-22298150D02*
X9720063Y-22269579D01*
X9720063Y-22269579D02*
X9729587Y-22250531D01*
X9729587Y-22250531D02*
X9739111Y-22221960D01*
X9739111Y-22221960D02*
X9748635Y-22174341D01*
X9748635Y-22174341D02*
X9748635Y-22136246D01*
X9748635Y-22136246D02*
X9739111Y-22088627D01*
X9739111Y-22088627D02*
X9729587Y-22060055D01*
X9729587Y-22060055D02*
X9720063Y-22041008D01*
X9720063Y-22041008D02*
X9701016Y-22012436D01*
X9701016Y-22012436D02*
X9691492Y-22002912D01*
X2645000Y-22360000D02*
X2645000Y-22560000D01*
X2545000Y-22460000D02*
X2745000Y-22460000D01*
X3091491Y-22418150D02*
X3091491Y-22551484D01*
X3043872Y-22341960D02*
X2996253Y-22484817D01*
X2996253Y-22484817D02*
X3120062Y-22484817D01*
X3196253Y-22532436D02*
X3205777Y-22541960D01*
X3205777Y-22541960D02*
X3196253Y-22551484D01*
X3196253Y-22551484D02*
X3186729Y-22541960D01*
X3186729Y-22541960D02*
X3196253Y-22532436D01*
X3196253Y-22532436D02*
X3196253Y-22551484D01*
X3329586Y-22351484D02*
X3348634Y-22351484D01*
X3348634Y-22351484D02*
X3367682Y-22361008D01*
X3367682Y-22361008D02*
X3377205Y-22370531D01*
X3377205Y-22370531D02*
X3386729Y-22389579D01*
X3386729Y-22389579D02*
X3396253Y-22427674D01*
X3396253Y-22427674D02*
X3396253Y-22475293D01*
X3396253Y-22475293D02*
X3386729Y-22513388D01*
X3386729Y-22513388D02*
X3377205Y-22532436D01*
X3377205Y-22532436D02*
X3367682Y-22541960D01*
X3367682Y-22541960D02*
X3348634Y-22551484D01*
X3348634Y-22551484D02*
X3329586Y-22551484D01*
X3329586Y-22551484D02*
X3310539Y-22541960D01*
X3310539Y-22541960D02*
X3301015Y-22532436D01*
X3301015Y-22532436D02*
X3291491Y-22513388D01*
X3291491Y-22513388D02*
X3281967Y-22475293D01*
X3281967Y-22475293D02*
X3281967Y-22427674D01*
X3281967Y-22427674D02*
X3291491Y-22389579D01*
X3291491Y-22389579D02*
X3301015Y-22370531D01*
X3301015Y-22370531D02*
X3310539Y-22361008D01*
X3310539Y-22361008D02*
X3329586Y-22351484D01*
X3520062Y-22351484D02*
X3539110Y-22351484D01*
X3539110Y-22351484D02*
X3558158Y-22361008D01*
X3558158Y-22361008D02*
X3567682Y-22370531D01*
X3567682Y-22370531D02*
X3577205Y-22389579D01*
X3577205Y-22389579D02*
X3586729Y-22427674D01*
X3586729Y-22427674D02*
X3586729Y-22475293D01*
X3586729Y-22475293D02*
X3577205Y-22513388D01*
X3577205Y-22513388D02*
X3567682Y-22532436D01*
X3567682Y-22532436D02*
X3558158Y-22541960D01*
X3558158Y-22541960D02*
X3539110Y-22551484D01*
X3539110Y-22551484D02*
X3520062Y-22551484D01*
X3520062Y-22551484D02*
X3501015Y-22541960D01*
X3501015Y-22541960D02*
X3491491Y-22532436D01*
X3491491Y-22532436D02*
X3481967Y-22513388D01*
X3481967Y-22513388D02*
X3472443Y-22475293D01*
X3472443Y-22475293D02*
X3472443Y-22427674D01*
X3472443Y-22427674D02*
X3481967Y-22389579D01*
X3481967Y-22389579D02*
X3491491Y-22370531D01*
X3491491Y-22370531D02*
X3501015Y-22361008D01*
X3501015Y-22361008D02*
X3520062Y-22351484D01*
X3710539Y-22351484D02*
X3729586Y-22351484D01*
X3729586Y-22351484D02*
X3748634Y-22361008D01*
X3748634Y-22361008D02*
X3758158Y-22370531D01*
X3758158Y-22370531D02*
X3767682Y-22389579D01*
X3767682Y-22389579D02*
X3777205Y-22427674D01*
X3777205Y-22427674D02*
X3777205Y-22475293D01*
X3777205Y-22475293D02*
X3767682Y-22513388D01*
X3767682Y-22513388D02*
X3758158Y-22532436D01*
X3758158Y-22532436D02*
X3748634Y-22541960D01*
X3748634Y-22541960D02*
X3729586Y-22551484D01*
X3729586Y-22551484D02*
X3710539Y-22551484D01*
X3710539Y-22551484D02*
X3691491Y-22541960D01*
X3691491Y-22541960D02*
X3681967Y-22532436D01*
X3681967Y-22532436D02*
X3672443Y-22513388D01*
X3672443Y-22513388D02*
X3662920Y-22475293D01*
X3662920Y-22475293D02*
X3662920Y-22427674D01*
X3662920Y-22427674D02*
X3672443Y-22389579D01*
X3672443Y-22389579D02*
X3681967Y-22370531D01*
X3681967Y-22370531D02*
X3691491Y-22361008D01*
X3691491Y-22361008D02*
X3710539Y-22351484D01*
X3862920Y-22551484D02*
X3862920Y-22418150D01*
X3862920Y-22437198D02*
X3872443Y-22427674D01*
X3872443Y-22427674D02*
X3891491Y-22418150D01*
X3891491Y-22418150D02*
X3920063Y-22418150D01*
X3920063Y-22418150D02*
X3939110Y-22427674D01*
X3939110Y-22427674D02*
X3948634Y-22446722D01*
X3948634Y-22446722D02*
X3948634Y-22551484D01*
X3948634Y-22446722D02*
X3958158Y-22427674D01*
X3958158Y-22427674D02*
X3977205Y-22418150D01*
X3977205Y-22418150D02*
X4005777Y-22418150D01*
X4005777Y-22418150D02*
X4024824Y-22427674D01*
X4024824Y-22427674D02*
X4034348Y-22446722D01*
X4034348Y-22446722D02*
X4034348Y-22551484D01*
X4129586Y-22551484D02*
X4129586Y-22418150D01*
X4129586Y-22437198D02*
X4139110Y-22427674D01*
X4139110Y-22427674D02*
X4158158Y-22418150D01*
X4158158Y-22418150D02*
X4186729Y-22418150D01*
X4186729Y-22418150D02*
X4205777Y-22427674D01*
X4205777Y-22427674D02*
X4215301Y-22446722D01*
X4215301Y-22446722D02*
X4215301Y-22551484D01*
X4215301Y-22446722D02*
X4224825Y-22427674D01*
X4224825Y-22427674D02*
X4243872Y-22418150D01*
X4243872Y-22418150D02*
X4272444Y-22418150D01*
X4272444Y-22418150D02*
X4291491Y-22427674D01*
X4291491Y-22427674D02*
X4301015Y-22446722D01*
X4301015Y-22446722D02*
X4301015Y-22551484D01*
X4691491Y-22341960D02*
X4520063Y-22599103D01*
X4948634Y-22351484D02*
X4967682Y-22351484D01*
X4967682Y-22351484D02*
X4986729Y-22361008D01*
X4986729Y-22361008D02*
X4996253Y-22370531D01*
X4996253Y-22370531D02*
X5005777Y-22389579D01*
X5005777Y-22389579D02*
X5015301Y-22427674D01*
X5015301Y-22427674D02*
X5015301Y-22475293D01*
X5015301Y-22475293D02*
X5005777Y-22513388D01*
X5005777Y-22513388D02*
X4996253Y-22532436D01*
X4996253Y-22532436D02*
X4986729Y-22541960D01*
X4986729Y-22541960D02*
X4967682Y-22551484D01*
X4967682Y-22551484D02*
X4948634Y-22551484D01*
X4948634Y-22551484D02*
X4929587Y-22541960D01*
X4929587Y-22541960D02*
X4920063Y-22532436D01*
X4920063Y-22532436D02*
X4910539Y-22513388D01*
X4910539Y-22513388D02*
X4901015Y-22475293D01*
X4901015Y-22475293D02*
X4901015Y-22427674D01*
X4901015Y-22427674D02*
X4910539Y-22389579D01*
X4910539Y-22389579D02*
X4920063Y-22370531D01*
X4920063Y-22370531D02*
X4929587Y-22361008D01*
X4929587Y-22361008D02*
X4948634Y-22351484D01*
X5101015Y-22532436D02*
X5110539Y-22541960D01*
X5110539Y-22541960D02*
X5101015Y-22551484D01*
X5101015Y-22551484D02*
X5091491Y-22541960D01*
X5091491Y-22541960D02*
X5101015Y-22532436D01*
X5101015Y-22532436D02*
X5101015Y-22551484D01*
X5301015Y-22551484D02*
X5186729Y-22551484D01*
X5243872Y-22551484D02*
X5243872Y-22351484D01*
X5243872Y-22351484D02*
X5224825Y-22380055D01*
X5224825Y-22380055D02*
X5205777Y-22399103D01*
X5205777Y-22399103D02*
X5186729Y-22408627D01*
X5481968Y-22351484D02*
X5386729Y-22351484D01*
X5386729Y-22351484D02*
X5377206Y-22446722D01*
X5377206Y-22446722D02*
X5386729Y-22437198D01*
X5386729Y-22437198D02*
X5405777Y-22427674D01*
X5405777Y-22427674D02*
X5453396Y-22427674D01*
X5453396Y-22427674D02*
X5472444Y-22437198D01*
X5472444Y-22437198D02*
X5481968Y-22446722D01*
X5481968Y-22446722D02*
X5491491Y-22465769D01*
X5491491Y-22465769D02*
X5491491Y-22513388D01*
X5491491Y-22513388D02*
X5481968Y-22532436D01*
X5481968Y-22532436D02*
X5472444Y-22541960D01*
X5472444Y-22541960D02*
X5453396Y-22551484D01*
X5453396Y-22551484D02*
X5405777Y-22551484D01*
X5405777Y-22551484D02*
X5386729Y-22541960D01*
X5386729Y-22541960D02*
X5377206Y-22532436D01*
X5558158Y-22351484D02*
X5691491Y-22351484D01*
X5691491Y-22351484D02*
X5605777Y-22551484D01*
X5862920Y-22351484D02*
X5767682Y-22351484D01*
X5767682Y-22351484D02*
X5758158Y-22446722D01*
X5758158Y-22446722D02*
X5767682Y-22437198D01*
X5767682Y-22437198D02*
X5786729Y-22427674D01*
X5786729Y-22427674D02*
X5834348Y-22427674D01*
X5834348Y-22427674D02*
X5853396Y-22437198D01*
X5853396Y-22437198D02*
X5862920Y-22446722D01*
X5862920Y-22446722D02*
X5872444Y-22465769D01*
X5872444Y-22465769D02*
X5872444Y-22513388D01*
X5872444Y-22513388D02*
X5862920Y-22532436D01*
X5862920Y-22532436D02*
X5853396Y-22541960D01*
X5853396Y-22541960D02*
X5834348Y-22551484D01*
X5834348Y-22551484D02*
X5786729Y-22551484D01*
X5786729Y-22551484D02*
X5767682Y-22541960D01*
X5767682Y-22541960D02*
X5758158Y-22532436D01*
X5948634Y-22351484D02*
X5948634Y-22389579D01*
X6024825Y-22351484D02*
X6024825Y-22389579D01*
X6320063Y-22627674D02*
X6310539Y-22618150D01*
X6310539Y-22618150D02*
X6291491Y-22589579D01*
X6291491Y-22589579D02*
X6281968Y-22570531D01*
X6281968Y-22570531D02*
X6272444Y-22541960D01*
X6272444Y-22541960D02*
X6262920Y-22494341D01*
X6262920Y-22494341D02*
X6262920Y-22456246D01*
X6262920Y-22456246D02*
X6272444Y-22408627D01*
X6272444Y-22408627D02*
X6281968Y-22380055D01*
X6281968Y-22380055D02*
X6291491Y-22361008D01*
X6291491Y-22361008D02*
X6310539Y-22332436D01*
X6310539Y-22332436D02*
X6320063Y-22322912D01*
X6501015Y-22551484D02*
X6386729Y-22551484D01*
X6443872Y-22551484D02*
X6443872Y-22351484D01*
X6443872Y-22351484D02*
X6424825Y-22380055D01*
X6424825Y-22380055D02*
X6405777Y-22399103D01*
X6405777Y-22399103D02*
X6386729Y-22408627D01*
X6739110Y-22551484D02*
X6739110Y-22351484D01*
X6824825Y-22551484D02*
X6824825Y-22446722D01*
X6824825Y-22446722D02*
X6815301Y-22427674D01*
X6815301Y-22427674D02*
X6796253Y-22418150D01*
X6796253Y-22418150D02*
X6767682Y-22418150D01*
X6767682Y-22418150D02*
X6748634Y-22427674D01*
X6748634Y-22427674D02*
X6739110Y-22437198D01*
X6948634Y-22551484D02*
X6929587Y-22541960D01*
X6929587Y-22541960D02*
X6920063Y-22532436D01*
X6920063Y-22532436D02*
X6910539Y-22513388D01*
X6910539Y-22513388D02*
X6910539Y-22456246D01*
X6910539Y-22456246D02*
X6920063Y-22437198D01*
X6920063Y-22437198D02*
X6929587Y-22427674D01*
X6929587Y-22427674D02*
X6948634Y-22418150D01*
X6948634Y-22418150D02*
X6977206Y-22418150D01*
X6977206Y-22418150D02*
X6996253Y-22427674D01*
X6996253Y-22427674D02*
X7005777Y-22437198D01*
X7005777Y-22437198D02*
X7015301Y-22456246D01*
X7015301Y-22456246D02*
X7015301Y-22513388D01*
X7015301Y-22513388D02*
X7005777Y-22532436D01*
X7005777Y-22532436D02*
X6996253Y-22541960D01*
X6996253Y-22541960D02*
X6977206Y-22551484D01*
X6977206Y-22551484D02*
X6948634Y-22551484D01*
X7129587Y-22551484D02*
X7110539Y-22541960D01*
X7110539Y-22541960D02*
X7101015Y-22522912D01*
X7101015Y-22522912D02*
X7101015Y-22351484D01*
X7281968Y-22541960D02*
X7262920Y-22551484D01*
X7262920Y-22551484D02*
X7224825Y-22551484D01*
X7224825Y-22551484D02*
X7205777Y-22541960D01*
X7205777Y-22541960D02*
X7196253Y-22522912D01*
X7196253Y-22522912D02*
X7196253Y-22446722D01*
X7196253Y-22446722D02*
X7205777Y-22427674D01*
X7205777Y-22427674D02*
X7224825Y-22418150D01*
X7224825Y-22418150D02*
X7262920Y-22418150D01*
X7262920Y-22418150D02*
X7281968Y-22427674D01*
X7281968Y-22427674D02*
X7291491Y-22446722D01*
X7291491Y-22446722D02*
X7291491Y-22465769D01*
X7291491Y-22465769D02*
X7196253Y-22484817D01*
X7358158Y-22627674D02*
X7367682Y-22618150D01*
X7367682Y-22618150D02*
X7386730Y-22589579D01*
X7386730Y-22589579D02*
X7396253Y-22570531D01*
X7396253Y-22570531D02*
X7405777Y-22541960D01*
X7405777Y-22541960D02*
X7415301Y-22494341D01*
X7415301Y-22494341D02*
X7415301Y-22456246D01*
X7415301Y-22456246D02*
X7405777Y-22408627D01*
X7405777Y-22408627D02*
X7396253Y-22380055D01*
X7396253Y-22380055D02*
X7386730Y-22361008D01*
X7386730Y-22361008D02*
X7367682Y-22332436D01*
X7367682Y-22332436D02*
X7358158Y-22322912D01*
X7720063Y-22627674D02*
X7710539Y-22618150D01*
X7710539Y-22618150D02*
X7691491Y-22589579D01*
X7691491Y-22589579D02*
X7681968Y-22570531D01*
X7681968Y-22570531D02*
X7672444Y-22541960D01*
X7672444Y-22541960D02*
X7662920Y-22494341D01*
X7662920Y-22494341D02*
X7662920Y-22456246D01*
X7662920Y-22456246D02*
X7672444Y-22408627D01*
X7672444Y-22408627D02*
X7681968Y-22380055D01*
X7681968Y-22380055D02*
X7691491Y-22361008D01*
X7691491Y-22361008D02*
X7710539Y-22332436D01*
X7710539Y-22332436D02*
X7720063Y-22322912D01*
X7796253Y-22418150D02*
X7796253Y-22551484D01*
X7796253Y-22437198D02*
X7805777Y-22427674D01*
X7805777Y-22427674D02*
X7824825Y-22418150D01*
X7824825Y-22418150D02*
X7853396Y-22418150D01*
X7853396Y-22418150D02*
X7872444Y-22427674D01*
X7872444Y-22427674D02*
X7881968Y-22446722D01*
X7881968Y-22446722D02*
X7881968Y-22551484D01*
X8005777Y-22551484D02*
X7986730Y-22541960D01*
X7986730Y-22541960D02*
X7977206Y-22532436D01*
X7977206Y-22532436D02*
X7967682Y-22513388D01*
X7967682Y-22513388D02*
X7967682Y-22456246D01*
X7967682Y-22456246D02*
X7977206Y-22437198D01*
X7977206Y-22437198D02*
X7986730Y-22427674D01*
X7986730Y-22427674D02*
X8005777Y-22418150D01*
X8005777Y-22418150D02*
X8034349Y-22418150D01*
X8034349Y-22418150D02*
X8053396Y-22427674D01*
X8053396Y-22427674D02*
X8062920Y-22437198D01*
X8062920Y-22437198D02*
X8072444Y-22456246D01*
X8072444Y-22456246D02*
X8072444Y-22513388D01*
X8072444Y-22513388D02*
X8062920Y-22532436D01*
X8062920Y-22532436D02*
X8053396Y-22541960D01*
X8053396Y-22541960D02*
X8034349Y-22551484D01*
X8034349Y-22551484D02*
X8005777Y-22551484D01*
X8129587Y-22418150D02*
X8205777Y-22418150D01*
X8158158Y-22351484D02*
X8158158Y-22522912D01*
X8158158Y-22522912D02*
X8167682Y-22541960D01*
X8167682Y-22541960D02*
X8186730Y-22551484D01*
X8186730Y-22551484D02*
X8205777Y-22551484D01*
X8424825Y-22418150D02*
X8424825Y-22618150D01*
X8424825Y-22427674D02*
X8443873Y-22418150D01*
X8443873Y-22418150D02*
X8481968Y-22418150D01*
X8481968Y-22418150D02*
X8501015Y-22427674D01*
X8501015Y-22427674D02*
X8510539Y-22437198D01*
X8510539Y-22437198D02*
X8520063Y-22456246D01*
X8520063Y-22456246D02*
X8520063Y-22513388D01*
X8520063Y-22513388D02*
X8510539Y-22532436D01*
X8510539Y-22532436D02*
X8501015Y-22541960D01*
X8501015Y-22541960D02*
X8481968Y-22551484D01*
X8481968Y-22551484D02*
X8443873Y-22551484D01*
X8443873Y-22551484D02*
X8424825Y-22541960D01*
X8634349Y-22551484D02*
X8615301Y-22541960D01*
X8615301Y-22541960D02*
X8605777Y-22522912D01*
X8605777Y-22522912D02*
X8605777Y-22351484D01*
X8796254Y-22551484D02*
X8796254Y-22446722D01*
X8796254Y-22446722D02*
X8786730Y-22427674D01*
X8786730Y-22427674D02*
X8767682Y-22418150D01*
X8767682Y-22418150D02*
X8729587Y-22418150D01*
X8729587Y-22418150D02*
X8710539Y-22427674D01*
X8796254Y-22541960D02*
X8777206Y-22551484D01*
X8777206Y-22551484D02*
X8729587Y-22551484D01*
X8729587Y-22551484D02*
X8710539Y-22541960D01*
X8710539Y-22541960D02*
X8701015Y-22522912D01*
X8701015Y-22522912D02*
X8701015Y-22503865D01*
X8701015Y-22503865D02*
X8710539Y-22484817D01*
X8710539Y-22484817D02*
X8729587Y-22475293D01*
X8729587Y-22475293D02*
X8777206Y-22475293D01*
X8777206Y-22475293D02*
X8796254Y-22465769D01*
X8862920Y-22418150D02*
X8939111Y-22418150D01*
X8891492Y-22351484D02*
X8891492Y-22522912D01*
X8891492Y-22522912D02*
X8901015Y-22541960D01*
X8901015Y-22541960D02*
X8920063Y-22551484D01*
X8920063Y-22551484D02*
X8939111Y-22551484D01*
X9081968Y-22541960D02*
X9062920Y-22551484D01*
X9062920Y-22551484D02*
X9024825Y-22551484D01*
X9024825Y-22551484D02*
X9005777Y-22541960D01*
X9005777Y-22541960D02*
X8996254Y-22522912D01*
X8996254Y-22522912D02*
X8996254Y-22446722D01*
X8996254Y-22446722D02*
X9005777Y-22427674D01*
X9005777Y-22427674D02*
X9024825Y-22418150D01*
X9024825Y-22418150D02*
X9062920Y-22418150D01*
X9062920Y-22418150D02*
X9081968Y-22427674D01*
X9081968Y-22427674D02*
X9091492Y-22446722D01*
X9091492Y-22446722D02*
X9091492Y-22465769D01*
X9091492Y-22465769D02*
X8996254Y-22484817D01*
X9262920Y-22551484D02*
X9262920Y-22351484D01*
X9262920Y-22541960D02*
X9243873Y-22551484D01*
X9243873Y-22551484D02*
X9205777Y-22551484D01*
X9205777Y-22551484D02*
X9186730Y-22541960D01*
X9186730Y-22541960D02*
X9177206Y-22532436D01*
X9177206Y-22532436D02*
X9167682Y-22513388D01*
X9167682Y-22513388D02*
X9167682Y-22456246D01*
X9167682Y-22456246D02*
X9177206Y-22437198D01*
X9177206Y-22437198D02*
X9186730Y-22427674D01*
X9186730Y-22427674D02*
X9205777Y-22418150D01*
X9205777Y-22418150D02*
X9243873Y-22418150D01*
X9243873Y-22418150D02*
X9262920Y-22427674D01*
X9339111Y-22627674D02*
X9348635Y-22618150D01*
X9348635Y-22618150D02*
X9367682Y-22589579D01*
X9367682Y-22589579D02*
X9377206Y-22570531D01*
X9377206Y-22570531D02*
X9386730Y-22541960D01*
X9386730Y-22541960D02*
X9396254Y-22494341D01*
X9396254Y-22494341D02*
X9396254Y-22456246D01*
X9396254Y-22456246D02*
X9386730Y-22408627D01*
X9386730Y-22408627D02*
X9377206Y-22380055D01*
X9377206Y-22380055D02*
X9367682Y-22361008D01*
X9367682Y-22361008D02*
X9348635Y-22332436D01*
X9348635Y-22332436D02*
X9339111Y-22322912D01*
X2715711Y-22850711D02*
X2715711Y-22709289D01*
X2574289Y-22709289D01*
X2574289Y-22850711D01*
X2715711Y-22850711D01*
X3101015Y-22671484D02*
X3005777Y-22671484D01*
X3005777Y-22671484D02*
X2996253Y-22766722D01*
X2996253Y-22766722D02*
X3005777Y-22757198D01*
X3005777Y-22757198D02*
X3024824Y-22747674D01*
X3024824Y-22747674D02*
X3072443Y-22747674D01*
X3072443Y-22747674D02*
X3091491Y-22757198D01*
X3091491Y-22757198D02*
X3101015Y-22766722D01*
X3101015Y-22766722D02*
X3110539Y-22785769D01*
X3110539Y-22785769D02*
X3110539Y-22833388D01*
X3110539Y-22833388D02*
X3101015Y-22852436D01*
X3101015Y-22852436D02*
X3091491Y-22861960D01*
X3091491Y-22861960D02*
X3072443Y-22871484D01*
X3072443Y-22871484D02*
X3024824Y-22871484D01*
X3024824Y-22871484D02*
X3005777Y-22861960D01*
X3005777Y-22861960D02*
X2996253Y-22852436D01*
X3196253Y-22852436D02*
X3205777Y-22861960D01*
X3205777Y-22861960D02*
X3196253Y-22871484D01*
X3196253Y-22871484D02*
X3186729Y-22861960D01*
X3186729Y-22861960D02*
X3196253Y-22852436D01*
X3196253Y-22852436D02*
X3196253Y-22871484D01*
X3329586Y-22671484D02*
X3348634Y-22671484D01*
X3348634Y-22671484D02*
X3367682Y-22681008D01*
X3367682Y-22681008D02*
X3377205Y-22690531D01*
X3377205Y-22690531D02*
X3386729Y-22709579D01*
X3386729Y-22709579D02*
X3396253Y-22747674D01*
X3396253Y-22747674D02*
X3396253Y-22795293D01*
X3396253Y-22795293D02*
X3386729Y-22833388D01*
X3386729Y-22833388D02*
X3377205Y-22852436D01*
X3377205Y-22852436D02*
X3367682Y-22861960D01*
X3367682Y-22861960D02*
X3348634Y-22871484D01*
X3348634Y-22871484D02*
X3329586Y-22871484D01*
X3329586Y-22871484D02*
X3310539Y-22861960D01*
X3310539Y-22861960D02*
X3301015Y-22852436D01*
X3301015Y-22852436D02*
X3291491Y-22833388D01*
X3291491Y-22833388D02*
X3281967Y-22795293D01*
X3281967Y-22795293D02*
X3281967Y-22747674D01*
X3281967Y-22747674D02*
X3291491Y-22709579D01*
X3291491Y-22709579D02*
X3301015Y-22690531D01*
X3301015Y-22690531D02*
X3310539Y-22681008D01*
X3310539Y-22681008D02*
X3329586Y-22671484D01*
X3520062Y-22671484D02*
X3539110Y-22671484D01*
X3539110Y-22671484D02*
X3558158Y-22681008D01*
X3558158Y-22681008D02*
X3567682Y-22690531D01*
X3567682Y-22690531D02*
X3577205Y-22709579D01*
X3577205Y-22709579D02*
X3586729Y-22747674D01*
X3586729Y-22747674D02*
X3586729Y-22795293D01*
X3586729Y-22795293D02*
X3577205Y-22833388D01*
X3577205Y-22833388D02*
X3567682Y-22852436D01*
X3567682Y-22852436D02*
X3558158Y-22861960D01*
X3558158Y-22861960D02*
X3539110Y-22871484D01*
X3539110Y-22871484D02*
X3520062Y-22871484D01*
X3520062Y-22871484D02*
X3501015Y-22861960D01*
X3501015Y-22861960D02*
X3491491Y-22852436D01*
X3491491Y-22852436D02*
X3481967Y-22833388D01*
X3481967Y-22833388D02*
X3472443Y-22795293D01*
X3472443Y-22795293D02*
X3472443Y-22747674D01*
X3472443Y-22747674D02*
X3481967Y-22709579D01*
X3481967Y-22709579D02*
X3491491Y-22690531D01*
X3491491Y-22690531D02*
X3501015Y-22681008D01*
X3501015Y-22681008D02*
X3520062Y-22671484D01*
X3710539Y-22671484D02*
X3729586Y-22671484D01*
X3729586Y-22671484D02*
X3748634Y-22681008D01*
X3748634Y-22681008D02*
X3758158Y-22690531D01*
X3758158Y-22690531D02*
X3767682Y-22709579D01*
X3767682Y-22709579D02*
X3777205Y-22747674D01*
X3777205Y-22747674D02*
X3777205Y-22795293D01*
X3777205Y-22795293D02*
X3767682Y-22833388D01*
X3767682Y-22833388D02*
X3758158Y-22852436D01*
X3758158Y-22852436D02*
X3748634Y-22861960D01*
X3748634Y-22861960D02*
X3729586Y-22871484D01*
X3729586Y-22871484D02*
X3710539Y-22871484D01*
X3710539Y-22871484D02*
X3691491Y-22861960D01*
X3691491Y-22861960D02*
X3681967Y-22852436D01*
X3681967Y-22852436D02*
X3672443Y-22833388D01*
X3672443Y-22833388D02*
X3662920Y-22795293D01*
X3662920Y-22795293D02*
X3662920Y-22747674D01*
X3662920Y-22747674D02*
X3672443Y-22709579D01*
X3672443Y-22709579D02*
X3681967Y-22690531D01*
X3681967Y-22690531D02*
X3691491Y-22681008D01*
X3691491Y-22681008D02*
X3710539Y-22671484D01*
X3862920Y-22871484D02*
X3862920Y-22738150D01*
X3862920Y-22757198D02*
X3872443Y-22747674D01*
X3872443Y-22747674D02*
X3891491Y-22738150D01*
X3891491Y-22738150D02*
X3920063Y-22738150D01*
X3920063Y-22738150D02*
X3939110Y-22747674D01*
X3939110Y-22747674D02*
X3948634Y-22766722D01*
X3948634Y-22766722D02*
X3948634Y-22871484D01*
X3948634Y-22766722D02*
X3958158Y-22747674D01*
X3958158Y-22747674D02*
X3977205Y-22738150D01*
X3977205Y-22738150D02*
X4005777Y-22738150D01*
X4005777Y-22738150D02*
X4024824Y-22747674D01*
X4024824Y-22747674D02*
X4034348Y-22766722D01*
X4034348Y-22766722D02*
X4034348Y-22871484D01*
X4129586Y-22871484D02*
X4129586Y-22738150D01*
X4129586Y-22757198D02*
X4139110Y-22747674D01*
X4139110Y-22747674D02*
X4158158Y-22738150D01*
X4158158Y-22738150D02*
X4186729Y-22738150D01*
X4186729Y-22738150D02*
X4205777Y-22747674D01*
X4205777Y-22747674D02*
X4215301Y-22766722D01*
X4215301Y-22766722D02*
X4215301Y-22871484D01*
X4215301Y-22766722D02*
X4224825Y-22747674D01*
X4224825Y-22747674D02*
X4243872Y-22738150D01*
X4243872Y-22738150D02*
X4272444Y-22738150D01*
X4272444Y-22738150D02*
X4291491Y-22747674D01*
X4291491Y-22747674D02*
X4301015Y-22766722D01*
X4301015Y-22766722D02*
X4301015Y-22871484D01*
X4691491Y-22661960D02*
X4520063Y-22919103D01*
X4948634Y-22671484D02*
X4967682Y-22671484D01*
X4967682Y-22671484D02*
X4986729Y-22681008D01*
X4986729Y-22681008D02*
X4996253Y-22690531D01*
X4996253Y-22690531D02*
X5005777Y-22709579D01*
X5005777Y-22709579D02*
X5015301Y-22747674D01*
X5015301Y-22747674D02*
X5015301Y-22795293D01*
X5015301Y-22795293D02*
X5005777Y-22833388D01*
X5005777Y-22833388D02*
X4996253Y-22852436D01*
X4996253Y-22852436D02*
X4986729Y-22861960D01*
X4986729Y-22861960D02*
X4967682Y-22871484D01*
X4967682Y-22871484D02*
X4948634Y-22871484D01*
X4948634Y-22871484D02*
X4929587Y-22861960D01*
X4929587Y-22861960D02*
X4920063Y-22852436D01*
X4920063Y-22852436D02*
X4910539Y-22833388D01*
X4910539Y-22833388D02*
X4901015Y-22795293D01*
X4901015Y-22795293D02*
X4901015Y-22747674D01*
X4901015Y-22747674D02*
X4910539Y-22709579D01*
X4910539Y-22709579D02*
X4920063Y-22690531D01*
X4920063Y-22690531D02*
X4929587Y-22681008D01*
X4929587Y-22681008D02*
X4948634Y-22671484D01*
X5101015Y-22852436D02*
X5110539Y-22861960D01*
X5110539Y-22861960D02*
X5101015Y-22871484D01*
X5101015Y-22871484D02*
X5091491Y-22861960D01*
X5091491Y-22861960D02*
X5101015Y-22852436D01*
X5101015Y-22852436D02*
X5101015Y-22871484D01*
X5301015Y-22871484D02*
X5186729Y-22871484D01*
X5243872Y-22871484D02*
X5243872Y-22671484D01*
X5243872Y-22671484D02*
X5224825Y-22700055D01*
X5224825Y-22700055D02*
X5205777Y-22719103D01*
X5205777Y-22719103D02*
X5186729Y-22728627D01*
X5396253Y-22871484D02*
X5434348Y-22871484D01*
X5434348Y-22871484D02*
X5453396Y-22861960D01*
X5453396Y-22861960D02*
X5462920Y-22852436D01*
X5462920Y-22852436D02*
X5481968Y-22823865D01*
X5481968Y-22823865D02*
X5491491Y-22785769D01*
X5491491Y-22785769D02*
X5491491Y-22709579D01*
X5491491Y-22709579D02*
X5481968Y-22690531D01*
X5481968Y-22690531D02*
X5472444Y-22681008D01*
X5472444Y-22681008D02*
X5453396Y-22671484D01*
X5453396Y-22671484D02*
X5415301Y-22671484D01*
X5415301Y-22671484D02*
X5396253Y-22681008D01*
X5396253Y-22681008D02*
X5386729Y-22690531D01*
X5386729Y-22690531D02*
X5377206Y-22709579D01*
X5377206Y-22709579D02*
X5377206Y-22757198D01*
X5377206Y-22757198D02*
X5386729Y-22776246D01*
X5386729Y-22776246D02*
X5396253Y-22785769D01*
X5396253Y-22785769D02*
X5415301Y-22795293D01*
X5415301Y-22795293D02*
X5453396Y-22795293D01*
X5453396Y-22795293D02*
X5472444Y-22785769D01*
X5472444Y-22785769D02*
X5481968Y-22776246D01*
X5481968Y-22776246D02*
X5491491Y-22757198D01*
X5662920Y-22671484D02*
X5624825Y-22671484D01*
X5624825Y-22671484D02*
X5605777Y-22681008D01*
X5605777Y-22681008D02*
X5596253Y-22690531D01*
X5596253Y-22690531D02*
X5577206Y-22719103D01*
X5577206Y-22719103D02*
X5567682Y-22757198D01*
X5567682Y-22757198D02*
X5567682Y-22833388D01*
X5567682Y-22833388D02*
X5577206Y-22852436D01*
X5577206Y-22852436D02*
X5586729Y-22861960D01*
X5586729Y-22861960D02*
X5605777Y-22871484D01*
X5605777Y-22871484D02*
X5643872Y-22871484D01*
X5643872Y-22871484D02*
X5662920Y-22861960D01*
X5662920Y-22861960D02*
X5672444Y-22852436D01*
X5672444Y-22852436D02*
X5681967Y-22833388D01*
X5681967Y-22833388D02*
X5681967Y-22785769D01*
X5681967Y-22785769D02*
X5672444Y-22766722D01*
X5672444Y-22766722D02*
X5662920Y-22757198D01*
X5662920Y-22757198D02*
X5643872Y-22747674D01*
X5643872Y-22747674D02*
X5605777Y-22747674D01*
X5605777Y-22747674D02*
X5586729Y-22757198D01*
X5586729Y-22757198D02*
X5577206Y-22766722D01*
X5577206Y-22766722D02*
X5567682Y-22785769D01*
X5777206Y-22871484D02*
X5815301Y-22871484D01*
X5815301Y-22871484D02*
X5834348Y-22861960D01*
X5834348Y-22861960D02*
X5843872Y-22852436D01*
X5843872Y-22852436D02*
X5862920Y-22823865D01*
X5862920Y-22823865D02*
X5872444Y-22785769D01*
X5872444Y-22785769D02*
X5872444Y-22709579D01*
X5872444Y-22709579D02*
X5862920Y-22690531D01*
X5862920Y-22690531D02*
X5853396Y-22681008D01*
X5853396Y-22681008D02*
X5834348Y-22671484D01*
X5834348Y-22671484D02*
X5796253Y-22671484D01*
X5796253Y-22671484D02*
X5777206Y-22681008D01*
X5777206Y-22681008D02*
X5767682Y-22690531D01*
X5767682Y-22690531D02*
X5758158Y-22709579D01*
X5758158Y-22709579D02*
X5758158Y-22757198D01*
X5758158Y-22757198D02*
X5767682Y-22776246D01*
X5767682Y-22776246D02*
X5777206Y-22785769D01*
X5777206Y-22785769D02*
X5796253Y-22795293D01*
X5796253Y-22795293D02*
X5834348Y-22795293D01*
X5834348Y-22795293D02*
X5853396Y-22785769D01*
X5853396Y-22785769D02*
X5862920Y-22776246D01*
X5862920Y-22776246D02*
X5872444Y-22757198D01*
X5948634Y-22671484D02*
X5948634Y-22709579D01*
X6024825Y-22671484D02*
X6024825Y-22709579D01*
X6320063Y-22947674D02*
X6310539Y-22938150D01*
X6310539Y-22938150D02*
X6291491Y-22909579D01*
X6291491Y-22909579D02*
X6281968Y-22890531D01*
X6281968Y-22890531D02*
X6272444Y-22861960D01*
X6272444Y-22861960D02*
X6262920Y-22814341D01*
X6262920Y-22814341D02*
X6262920Y-22776246D01*
X6262920Y-22776246D02*
X6272444Y-22728627D01*
X6272444Y-22728627D02*
X6281968Y-22700055D01*
X6281968Y-22700055D02*
X6291491Y-22681008D01*
X6291491Y-22681008D02*
X6310539Y-22652436D01*
X6310539Y-22652436D02*
X6320063Y-22642912D01*
X6501015Y-22871484D02*
X6386729Y-22871484D01*
X6443872Y-22871484D02*
X6443872Y-22671484D01*
X6443872Y-22671484D02*
X6424825Y-22700055D01*
X6424825Y-22700055D02*
X6405777Y-22719103D01*
X6405777Y-22719103D02*
X6386729Y-22728627D01*
X6739110Y-22871484D02*
X6739110Y-22671484D01*
X6824825Y-22871484D02*
X6824825Y-22766722D01*
X6824825Y-22766722D02*
X6815301Y-22747674D01*
X6815301Y-22747674D02*
X6796253Y-22738150D01*
X6796253Y-22738150D02*
X6767682Y-22738150D01*
X6767682Y-22738150D02*
X6748634Y-22747674D01*
X6748634Y-22747674D02*
X6739110Y-22757198D01*
X6948634Y-22871484D02*
X6929587Y-22861960D01*
X6929587Y-22861960D02*
X6920063Y-22852436D01*
X6920063Y-22852436D02*
X6910539Y-22833388D01*
X6910539Y-22833388D02*
X6910539Y-22776246D01*
X6910539Y-22776246D02*
X6920063Y-22757198D01*
X6920063Y-22757198D02*
X6929587Y-22747674D01*
X6929587Y-22747674D02*
X6948634Y-22738150D01*
X6948634Y-22738150D02*
X6977206Y-22738150D01*
X6977206Y-22738150D02*
X6996253Y-22747674D01*
X6996253Y-22747674D02*
X7005777Y-22757198D01*
X7005777Y-22757198D02*
X7015301Y-22776246D01*
X7015301Y-22776246D02*
X7015301Y-22833388D01*
X7015301Y-22833388D02*
X7005777Y-22852436D01*
X7005777Y-22852436D02*
X6996253Y-22861960D01*
X6996253Y-22861960D02*
X6977206Y-22871484D01*
X6977206Y-22871484D02*
X6948634Y-22871484D01*
X7129587Y-22871484D02*
X7110539Y-22861960D01*
X7110539Y-22861960D02*
X7101015Y-22842912D01*
X7101015Y-22842912D02*
X7101015Y-22671484D01*
X7281968Y-22861960D02*
X7262920Y-22871484D01*
X7262920Y-22871484D02*
X7224825Y-22871484D01*
X7224825Y-22871484D02*
X7205777Y-22861960D01*
X7205777Y-22861960D02*
X7196253Y-22842912D01*
X7196253Y-22842912D02*
X7196253Y-22766722D01*
X7196253Y-22766722D02*
X7205777Y-22747674D01*
X7205777Y-22747674D02*
X7224825Y-22738150D01*
X7224825Y-22738150D02*
X7262920Y-22738150D01*
X7262920Y-22738150D02*
X7281968Y-22747674D01*
X7281968Y-22747674D02*
X7291491Y-22766722D01*
X7291491Y-22766722D02*
X7291491Y-22785769D01*
X7291491Y-22785769D02*
X7196253Y-22804817D01*
X7358158Y-22947674D02*
X7367682Y-22938150D01*
X7367682Y-22938150D02*
X7386730Y-22909579D01*
X7386730Y-22909579D02*
X7396253Y-22890531D01*
X7396253Y-22890531D02*
X7405777Y-22861960D01*
X7405777Y-22861960D02*
X7415301Y-22814341D01*
X7415301Y-22814341D02*
X7415301Y-22776246D01*
X7415301Y-22776246D02*
X7405777Y-22728627D01*
X7405777Y-22728627D02*
X7396253Y-22700055D01*
X7396253Y-22700055D02*
X7386730Y-22681008D01*
X7386730Y-22681008D02*
X7367682Y-22652436D01*
X7367682Y-22652436D02*
X7358158Y-22642912D01*
X7720063Y-22947674D02*
X7710539Y-22938150D01*
X7710539Y-22938150D02*
X7691491Y-22909579D01*
X7691491Y-22909579D02*
X7681968Y-22890531D01*
X7681968Y-22890531D02*
X7672444Y-22861960D01*
X7672444Y-22861960D02*
X7662920Y-22814341D01*
X7662920Y-22814341D02*
X7662920Y-22776246D01*
X7662920Y-22776246D02*
X7672444Y-22728627D01*
X7672444Y-22728627D02*
X7681968Y-22700055D01*
X7681968Y-22700055D02*
X7691491Y-22681008D01*
X7691491Y-22681008D02*
X7710539Y-22652436D01*
X7710539Y-22652436D02*
X7720063Y-22642912D01*
X7796253Y-22738150D02*
X7796253Y-22871484D01*
X7796253Y-22757198D02*
X7805777Y-22747674D01*
X7805777Y-22747674D02*
X7824825Y-22738150D01*
X7824825Y-22738150D02*
X7853396Y-22738150D01*
X7853396Y-22738150D02*
X7872444Y-22747674D01*
X7872444Y-22747674D02*
X7881968Y-22766722D01*
X7881968Y-22766722D02*
X7881968Y-22871484D01*
X8005777Y-22871484D02*
X7986730Y-22861960D01*
X7986730Y-22861960D02*
X7977206Y-22852436D01*
X7977206Y-22852436D02*
X7967682Y-22833388D01*
X7967682Y-22833388D02*
X7967682Y-22776246D01*
X7967682Y-22776246D02*
X7977206Y-22757198D01*
X7977206Y-22757198D02*
X7986730Y-22747674D01*
X7986730Y-22747674D02*
X8005777Y-22738150D01*
X8005777Y-22738150D02*
X8034349Y-22738150D01*
X8034349Y-22738150D02*
X8053396Y-22747674D01*
X8053396Y-22747674D02*
X8062920Y-22757198D01*
X8062920Y-22757198D02*
X8072444Y-22776246D01*
X8072444Y-22776246D02*
X8072444Y-22833388D01*
X8072444Y-22833388D02*
X8062920Y-22852436D01*
X8062920Y-22852436D02*
X8053396Y-22861960D01*
X8053396Y-22861960D02*
X8034349Y-22871484D01*
X8034349Y-22871484D02*
X8005777Y-22871484D01*
X8129587Y-22738150D02*
X8205777Y-22738150D01*
X8158158Y-22671484D02*
X8158158Y-22842912D01*
X8158158Y-22842912D02*
X8167682Y-22861960D01*
X8167682Y-22861960D02*
X8186730Y-22871484D01*
X8186730Y-22871484D02*
X8205777Y-22871484D01*
X8424825Y-22738150D02*
X8424825Y-22938150D01*
X8424825Y-22747674D02*
X8443873Y-22738150D01*
X8443873Y-22738150D02*
X8481968Y-22738150D01*
X8481968Y-22738150D02*
X8501015Y-22747674D01*
X8501015Y-22747674D02*
X8510539Y-22757198D01*
X8510539Y-22757198D02*
X8520063Y-22776246D01*
X8520063Y-22776246D02*
X8520063Y-22833388D01*
X8520063Y-22833388D02*
X8510539Y-22852436D01*
X8510539Y-22852436D02*
X8501015Y-22861960D01*
X8501015Y-22861960D02*
X8481968Y-22871484D01*
X8481968Y-22871484D02*
X8443873Y-22871484D01*
X8443873Y-22871484D02*
X8424825Y-22861960D01*
X8634349Y-22871484D02*
X8615301Y-22861960D01*
X8615301Y-22861960D02*
X8605777Y-22842912D01*
X8605777Y-22842912D02*
X8605777Y-22671484D01*
X8796254Y-22871484D02*
X8796254Y-22766722D01*
X8796254Y-22766722D02*
X8786730Y-22747674D01*
X8786730Y-22747674D02*
X8767682Y-22738150D01*
X8767682Y-22738150D02*
X8729587Y-22738150D01*
X8729587Y-22738150D02*
X8710539Y-22747674D01*
X8796254Y-22861960D02*
X8777206Y-22871484D01*
X8777206Y-22871484D02*
X8729587Y-22871484D01*
X8729587Y-22871484D02*
X8710539Y-22861960D01*
X8710539Y-22861960D02*
X8701015Y-22842912D01*
X8701015Y-22842912D02*
X8701015Y-22823865D01*
X8701015Y-22823865D02*
X8710539Y-22804817D01*
X8710539Y-22804817D02*
X8729587Y-22795293D01*
X8729587Y-22795293D02*
X8777206Y-22795293D01*
X8777206Y-22795293D02*
X8796254Y-22785769D01*
X8862920Y-22738150D02*
X8939111Y-22738150D01*
X8891492Y-22671484D02*
X8891492Y-22842912D01*
X8891492Y-22842912D02*
X8901015Y-22861960D01*
X8901015Y-22861960D02*
X8920063Y-22871484D01*
X8920063Y-22871484D02*
X8939111Y-22871484D01*
X9081968Y-22861960D02*
X9062920Y-22871484D01*
X9062920Y-22871484D02*
X9024825Y-22871484D01*
X9024825Y-22871484D02*
X9005777Y-22861960D01*
X9005777Y-22861960D02*
X8996254Y-22842912D01*
X8996254Y-22842912D02*
X8996254Y-22766722D01*
X8996254Y-22766722D02*
X9005777Y-22747674D01*
X9005777Y-22747674D02*
X9024825Y-22738150D01*
X9024825Y-22738150D02*
X9062920Y-22738150D01*
X9062920Y-22738150D02*
X9081968Y-22747674D01*
X9081968Y-22747674D02*
X9091492Y-22766722D01*
X9091492Y-22766722D02*
X9091492Y-22785769D01*
X9091492Y-22785769D02*
X8996254Y-22804817D01*
X9262920Y-22871484D02*
X9262920Y-22671484D01*
X9262920Y-22861960D02*
X9243873Y-22871484D01*
X9243873Y-22871484D02*
X9205777Y-22871484D01*
X9205777Y-22871484D02*
X9186730Y-22861960D01*
X9186730Y-22861960D02*
X9177206Y-22852436D01*
X9177206Y-22852436D02*
X9167682Y-22833388D01*
X9167682Y-22833388D02*
X9167682Y-22776246D01*
X9167682Y-22776246D02*
X9177206Y-22757198D01*
X9177206Y-22757198D02*
X9186730Y-22747674D01*
X9186730Y-22747674D02*
X9205777Y-22738150D01*
X9205777Y-22738150D02*
X9243873Y-22738150D01*
X9243873Y-22738150D02*
X9262920Y-22747674D01*
X9339111Y-22947674D02*
X9348635Y-22938150D01*
X9348635Y-22938150D02*
X9367682Y-22909579D01*
X9367682Y-22909579D02*
X9377206Y-22890531D01*
X9377206Y-22890531D02*
X9386730Y-22861960D01*
X9386730Y-22861960D02*
X9396254Y-22814341D01*
X9396254Y-22814341D02*
X9396254Y-22776246D01*
X9396254Y-22776246D02*
X9386730Y-22728627D01*
X9386730Y-22728627D02*
X9377206Y-22700055D01*
X9377206Y-22700055D02*
X9367682Y-22681008D01*
X9367682Y-22681008D02*
X9348635Y-22652436D01*
X9348635Y-22652436D02*
X9339111Y-22642912D01*
M02*
