%TF.GenerationSoftware,KiCad,Pcbnew,7.0.10*%
%TF.CreationDate,2024-02-02T19:17:30-06:00*%
%TF.ProjectId,genbox,67656e62-6f78-42e6-9b69-6361645f7063,rev?*%
%TF.SameCoordinates,Original*%
%TF.FileFunction,Soldermask,Top*%
%TF.FilePolarity,Negative*%
%FSLAX46Y46*%
G04 Gerber Fmt 4.6, Leading zero omitted, Abs format (unit mm)*
G04 Created by KiCad (PCBNEW 7.0.10) date 2024-02-02 19:17:30*
%MOMM*%
%LPD*%
G01*
G04 APERTURE LIST*
G04 Aperture macros list*
%AMRoundRect*
0 Rectangle with rounded corners*
0 $1 Rounding radius*
0 $2 $3 $4 $5 $6 $7 $8 $9 X,Y pos of 4 corners*
0 Add a 4 corners polygon primitive as box body*
4,1,4,$2,$3,$4,$5,$6,$7,$8,$9,$2,$3,0*
0 Add four circle primitives for the rounded corners*
1,1,$1+$1,$2,$3*
1,1,$1+$1,$4,$5*
1,1,$1+$1,$6,$7*
1,1,$1+$1,$8,$9*
0 Add four rect primitives between the rounded corners*
20,1,$1+$1,$2,$3,$4,$5,0*
20,1,$1+$1,$4,$5,$6,$7,0*
20,1,$1+$1,$6,$7,$8,$9,0*
20,1,$1+$1,$8,$9,$2,$3,0*%
G04 Aperture macros list end*
%ADD10RoundRect,0.400050X0.899950X0.400050X-0.899950X0.400050X-0.899950X-0.400050X0.899950X-0.400050X0*%
%ADD11RoundRect,0.393700X0.393700X0.906300X-0.393700X0.906300X-0.393700X-0.906300X0.393700X-0.906300X0*%
%ADD12RoundRect,0.400000X0.400000X0.900000X-0.400000X0.900000X-0.400000X-0.900000X0.400000X-0.900000X0*%
%ADD13RoundRect,0.400000X0.900000X0.400000X-0.900000X0.400000X-0.900000X-0.400000X0.900000X-0.400000X0*%
%ADD14C,2.000000*%
%ADD15C,5.000000*%
%ADD16C,4.000000*%
%ADD17C,1.750000*%
%ADD18C,3.987800*%
%ADD19C,3.300000*%
G04 APERTURE END LIST*
D10*
%TO.C,RZ1*%
X125275000Y-68805000D03*
X125275000Y-66265000D03*
X125275000Y-71345000D03*
X125275000Y-73885000D03*
X125275000Y-76425000D03*
X125275000Y-78965000D03*
X125275000Y-81505000D03*
X125275000Y-84045000D03*
X125275000Y-86585000D03*
D11*
X122135000Y-87395000D03*
X119595000Y-87395000D03*
X117055000Y-87395000D03*
X114515000Y-87395000D03*
D12*
X111975000Y-87395000D03*
D10*
X108835000Y-86585000D03*
X108835000Y-84045000D03*
X108835000Y-81505000D03*
X108835000Y-78965000D03*
D13*
X108835000Y-76425000D03*
X108835000Y-73885000D03*
X108835000Y-71345000D03*
X108835000Y-68805000D03*
X108835000Y-66265000D03*
%TD*%
D14*
%TO.C,SW16*%
X179250000Y-79750000D03*
X185750000Y-79750000D03*
X179250000Y-84250000D03*
X185750000Y-84250000D03*
%TD*%
%TO.C,SW17*%
X219750000Y-84250000D03*
X213250000Y-84250000D03*
X219750000Y-79750000D03*
X213250000Y-79750000D03*
%TD*%
D15*
%TO.C,REF2*%
X199500000Y-150000000D03*
%TD*%
D14*
%TO.C,SW18*%
X239750000Y-84250000D03*
X233250000Y-84250000D03*
X239750000Y-79750000D03*
X233250000Y-79750000D03*
%TD*%
%TO.C,SW15*%
X165750000Y-84250000D03*
X159250000Y-84250000D03*
X165750000Y-79750000D03*
X159250000Y-79750000D03*
%TD*%
D16*
%TO.C,REF1*%
X199500000Y-77000000D03*
%TD*%
D17*
%TO.C,MX11*%
X289580000Y-192000000D03*
D18*
X284500000Y-192000000D03*
D17*
X279420000Y-192000000D03*
D19*
X280690000Y-189460000D03*
X287040000Y-186920000D03*
%TD*%
D17*
%TO.C,MX3*%
X91099000Y-126455500D03*
D18*
X86019000Y-126455500D03*
D17*
X80939000Y-126455500D03*
D19*
X82209000Y-123915500D03*
X88559000Y-121375500D03*
%TD*%
D17*
%TO.C,MX12*%
X318061000Y-136455500D03*
D18*
X312981000Y-136455500D03*
D17*
X307901000Y-136455500D03*
D19*
X309171000Y-133915500D03*
X315521000Y-131375500D03*
%TD*%
D17*
%TO.C,MX6*%
X119580000Y-192000000D03*
D18*
X114500000Y-192000000D03*
D17*
X109420000Y-192000000D03*
D19*
X110690000Y-189460000D03*
X117040000Y-186920000D03*
%TD*%
D17*
%TO.C,MX2*%
X375549000Y-139793500D03*
D18*
X370469000Y-139793500D03*
D17*
X365389000Y-139793500D03*
D19*
X366659000Y-137253500D03*
X373009000Y-134713500D03*
%TD*%
D17*
%TO.C,MX13*%
X346220000Y-136211900D03*
D18*
X341140000Y-136211900D03*
D17*
X336060000Y-136211900D03*
D19*
X337330000Y-133671900D03*
X343680000Y-131131900D03*
%TD*%
D17*
%TO.C,MX10*%
X338326000Y-110391700D03*
D18*
X333246000Y-110391700D03*
D17*
X328166000Y-110391700D03*
D19*
X329436000Y-107851700D03*
X335786000Y-105311700D03*
%TD*%
D17*
%TO.C,MX9*%
X310167000Y-110635300D03*
D18*
X305087000Y-110635300D03*
D17*
X300007000Y-110635300D03*
D19*
X301277000Y-108095300D03*
X307627000Y-105555300D03*
%TD*%
D17*
%TO.C,MX5*%
X98993000Y-100635300D03*
D18*
X93913000Y-100635300D03*
D17*
X88833000Y-100635300D03*
D19*
X90103000Y-98095300D03*
X96453000Y-95555300D03*
%TD*%
D17*
%TO.C,MX8*%
X294580000Y-152000000D03*
D18*
X289500000Y-152000000D03*
D17*
X284420000Y-152000000D03*
D19*
X285690000Y-149460000D03*
X292040000Y-146920000D03*
%TD*%
D17*
%TO.C,MX7*%
X286686000Y-126179800D03*
D18*
X281606000Y-126179800D03*
D17*
X276526000Y-126179800D03*
D19*
X277796000Y-123639800D03*
X284146000Y-121099800D03*
%TD*%
D17*
%TO.C,MX1*%
X62940000Y-126211900D03*
D18*
X57860000Y-126211900D03*
D17*
X52780000Y-126211900D03*
D19*
X54050000Y-123671900D03*
X60400000Y-121131900D03*
%TD*%
D17*
%TO.C,MX14*%
X367655000Y-113973300D03*
D18*
X362575000Y-113973300D03*
D17*
X357495000Y-113973300D03*
D19*
X358765000Y-111433300D03*
X365115000Y-108893300D03*
%TD*%
D17*
%TO.C,MX4*%
X114580000Y-142000000D03*
D18*
X109500000Y-142000000D03*
D17*
X104420000Y-142000000D03*
D19*
X105690000Y-139460000D03*
X112040000Y-136920000D03*
%TD*%
M02*
