M48
; DRILL file {KiCad 7.0.10} date Fri Feb  2 19:17:34 2024
; FORMAT={-:-/ absolute / inch / decimal}
; #@! TF.CreationDate,2024-02-02T19:17:34-06:00
; #@! TF.GenerationSoftware,Kicad,Pcbnew,7.0.10
; #@! TF.FileFunction,NonPlated,1,2,NPTH
FMAT,2
INCH
; #@! TA.AperFunction,NonPlated,NPTH,ComponentDrill
T1C0.0689
; #@! TA.AperFunction,NonPlated,NPTH,ComponentDrill
T2C0.1570
; #@! TA.AperFunction,NonPlated,NPTH,ComponentDrill
T3C0.1575
; #@! TA.AperFunction,NonPlated,NPTH,ComponentDrill
T4C0.1969
%
G90
G05
T1
X2.078Y-4.969
X2.478Y-4.969
X3.1866Y-4.9786
X3.4974Y-3.962
X3.5866Y-4.9786
X3.8974Y-3.962
X4.111Y-5.5906
X4.3079Y-7.5591
X4.511Y-5.5906
X4.7079Y-7.5591
X10.8869Y-4.9677
X11.0008Y-7.5591
X11.1976Y-5.9843
X11.2869Y-4.9677
X11.4008Y-7.5591
X11.5976Y-5.9843
X11.8113Y-4.3557
X12.1221Y-5.3723
X12.2113Y-4.3557
X12.5221Y-5.3723
X12.9199Y-4.3461
X13.2307Y-5.3627
X13.3199Y-4.3461
X13.6307Y-5.3627
X14.0746Y-4.4871
X14.3854Y-5.5037
X14.4746Y-4.4871
X14.7854Y-5.5037
T2
X2.278Y-4.969
X3.3866Y-4.9786
X3.6974Y-3.962
X4.311Y-5.5906
X4.5079Y-7.5591
X11.0869Y-4.9677
X11.2008Y-7.5591
X11.3976Y-5.9843
X12.0113Y-4.3557
X12.3221Y-5.3723
X13.1199Y-4.3461
X13.4307Y-5.3627
X14.2746Y-4.4871
X14.5854Y-5.5037
T3
X7.8543Y-3.0315
T4
X7.8543Y-5.9055
M30
