M48
; DRILL file {KiCad 7.0.10} date Fri Feb  2 19:17:34 2024
; FORMAT={-:-/ absolute / inch / decimal}
; #@! TF.CreationDate,2024-02-02T19:17:34-06:00
; #@! TF.GenerationSoftware,Kicad,Pcbnew,7.0.10
; #@! TF.FileFunction,Plated,1,2,PTH
FMAT,2
INCH
; #@! TA.AperFunction,Plated,PTH,ViaDrill
T1C0.0157
; #@! TA.AperFunction,Plated,PTH,ComponentDrill
T2C0.0315
; #@! TA.AperFunction,Plated,PTH,ComponentDrill
T3C0.0433
; #@! TA.AperFunction,Plated,PTH,ComponentDrill
T4C0.1181
%
G90
G05
T1
X3.8583Y-2.9921
X3.8976Y-2.9134
X5.0394Y-2.7067
X5.5906Y-3.8583
X5.5906Y-4.5669
X5.6299Y-3.7795
X5.6299Y-4.6161
T2
X4.3085Y-2.6089
X4.3085Y-2.7089
X4.3085Y-2.8089
X4.3085Y-2.9089
X4.3085Y-3.0089
X4.3085Y-3.1089
X4.3085Y-3.2089
X4.3085Y-3.3089
X4.3085Y-3.4089
X4.4085Y-3.4171
X4.5085Y-3.4171
X4.6085Y-3.4171
X4.7085Y-3.4171
X4.8085Y-3.4171
X4.9085Y-2.6089
X4.9085Y-2.7089
X4.9085Y-2.8089
X4.9085Y-2.9089
X4.9085Y-3.0089
X4.9085Y-3.1089
X4.9085Y-3.2089
X4.9085Y-3.3089
X4.9085Y-3.4089
T3
X6.2697Y-3.1398
X6.2697Y-3.3169
X6.5256Y-3.1398
X6.5256Y-3.3169
X7.0571Y-3.1398
X7.0571Y-3.3169
X7.313Y-3.1398
X7.313Y-3.3169
X8.3957Y-3.1398
X8.3957Y-3.3169
X8.6516Y-3.1398
X8.6516Y-3.3169
X9.1831Y-3.1398
X9.1831Y-3.3169
X9.439Y-3.1398
X9.439Y-3.3169
T4
X2.128Y-4.869
X2.378Y-4.769
X3.2366Y-4.8786
X3.4866Y-4.7786
X3.5474Y-3.862
X3.7974Y-3.762
X4.161Y-5.4906
X4.3579Y-7.4591
X4.411Y-5.3906
X4.6079Y-7.3591
X10.9369Y-4.8677
X11.0508Y-7.4591
X11.1869Y-4.7677
X11.2476Y-5.8843
X11.3008Y-7.3591
X11.4976Y-5.7843
X11.8613Y-4.2557
X12.1113Y-4.1557
X12.1721Y-5.2723
X12.4221Y-5.1723
X12.9699Y-4.2461
X13.2199Y-4.1461
X13.2807Y-5.2627
X13.5307Y-5.1627
X14.1246Y-4.3871
X14.3746Y-4.2871
X14.4354Y-5.4037
X14.6854Y-5.3037
M30
